<?xml version="1.0" encoding="UTF-8" standalone="no"?>
<!-- Generator: Adobe Illustrator 16.0.0, SVG Export Plug-In . SVG Version: 6.00 Build 0)  -->

<svg
   version="1.1"
   id="Layer_1"
   x="0px"
   y="0px"
   width="144px"
   height="162px"
   viewBox="0 0 144 162"
   enable-background="new 0 0 144 162"
   xml:space="preserve"
   sodipodi:docname="head.svg"
   inkscape:version="1.1.1 (3bf5ae0d25, 2021-09-20)"
   xmlns:inkscape="http://www.inkscape.org/namespaces/inkscape"
   xmlns:sodipodi="http://sodipodi.sourceforge.net/DTD/sodipodi-0.dtd"
   xmlns="http://www.w3.org/2000/svg"
   xmlns:svg="http://www.w3.org/2000/svg"><defs
   id="defs864">
	
	
	

	

	
	
	

</defs><sodipodi:namedview
   id="namedview862"
   pagecolor="#ffffff"
   bordercolor="#666666"
   borderopacity="1.0"
   inkscape:pageshadow="2"
   inkscape:pageopacity="0.0"
   inkscape:pagecheckerboard="0"
   showgrid="false"
   inkscape:zoom="4.9938272"
   inkscape:cx="72.088999"
   inkscape:cy="88.809642"
   inkscape:window-width="1920"
   inkscape:window-height="1017"
   inkscape:window-x="-8"
   inkscape:window-y="-8"
   inkscape:window-maximized="1"
   inkscape:current-layer="Layer_1" />
<rect
   x="14.886277"
   y="60.941288"
   fill="#efcaa0"
   width="110.11374"
   height="46.058712"
   id="rect845" /><rect
   x="43"
   y="63"
   width="11"
   height="22"
   id="rect847" /><rect
   x="86"
   y="63"
   width="11"
   height="22"
   id="rect849" /><rect
   x="125"
   y="74"
   fill="#efcaa0"
   width="15"
   height="22"
   id="rect851" /><path
   fill="#8c6239"
   d="m 125,107 c 0,30 -24.6,55 -55,55 -30.4,0 -55,-25 -55,-55 0,0 24.6,0 55,0 30.4,0 55,0 55,0 z"
   id="path853"
   style="fill:#1a1a1a" /><path
   fill="#8c6239"
   d="m 14.886277,60.941287 c 0,-30 24.6,-55.0000004 55,-55.0000004 30.400003,0 55.000003,25.0000004 55.000003,55.0000004 l -54.799756,2.002472 z"
   id="path853-3"
   style="fill:#efcaa0;fill-opacity:1"
   sodipodi:nodetypes="csccc" /><rect
   x="54"
   y="118"
   fill="#efcaa0"
   width="32"
   height="11"
   id="rect855" /><rect
   y="74"
   fill="#efcaa0"
   width="19"
   height="22"
   id="rect857"
   x="0" />
</svg>
