<?xml version="1.0" encoding="UTF-8" standalone="no"?>
<svg
   version="1.1"
   id="svg2"
   xml:space="preserve"
   width="597.75085"
   height="790.17505"
   viewBox="0 0 597.75085 790.17505"
   sodipodi:docname="calc2.svg"
   inkscape:version="1.1.1 (3bf5ae0d25, 2021-09-20)"
   xmlns:inkscape="http://www.inkscape.org/namespaces/inkscape"
   xmlns:sodipodi="http://sodipodi.sourceforge.net/DTD/sodipodi-0.dtd"
   xmlns="http://www.w3.org/2000/svg"
   xmlns:svg="http://www.w3.org/2000/svg"
   xmlns:rdf="http://www.w3.org/1999/02/22-rdf-syntax-ns#"
   xmlns:cc="http://creativecommons.org/ns#"
   xmlns:dc="http://purl.org/dc/elements/1.1/"><metadata
     id="metadata8"><rdf:RDF><cc:Work
         rdf:about=""><dc:format>image/svg+xml</dc:format><dc:type
           rdf:resource="http://purl.org/dc/dcmitype/StillImage" /></cc:Work></rdf:RDF></metadata><defs
     id="defs6" /><sodipodi:namedview
     pagecolor="#ffffff"
     bordercolor="#666666"
     borderopacity="1"
     objecttolerance="10"
     gridtolerance="10"
     guidetolerance="10"
     inkscape:pageopacity="0"
     inkscape:pageshadow="2"
     inkscape:window-width="1920"
     inkscape:window-height="1017"
     id="namedview4"
     inkscape:pagecheckerboard="0"
     showgrid="false"
     inkscape:zoom="0.156"
     inkscape:cx="-727.5641"
     inkscape:cy="580.12821"
     inkscape:window-x="-8"
     inkscape:window-y="-8"
     inkscape:window-maximized="1"
     inkscape:current-layer="g10"
     fit-margin-top="0"
     fit-margin-left="0"
     fit-margin-right="0"
     fit-margin-bottom="0"
     width="1988.7765px"
     scale-x="1" /><g
     id="g10"
     inkscape:groupmode="layer"
     inkscape:label="ink_ext_XXXXXX"
     transform="matrix(1.3333333,0,0,-1.3333333,-383.7964,2642.4399)"><path
       d="m 735.8879,1421.5184 c -0.0129,-17.8569 -14.49256,-32.3324 -32.35803,-32.3197 l -383.3569,0.1959 c -17.86165,0.01 -32.33289,14.5011 -32.32566,32.3581 l 0.27342,527.7534 c 0.006,17.8569 14.4985,32.3282 32.35546,32.3239 l 383.36031,-0.2001 c 17.86123,-0.01 32.33246,-14.4968 32.32395,-32.3538 l -0.27255,-527.7577"
       style="fill:#3e4c6b;fill-opacity:1;fill-rule:nonzero;stroke:none;stroke-width:0.0425875"
       id="path18" /><path
       d="m 700.00788,1846.7381 c -0.004,-7.0057 -6.88215,-12.6826 -15.36131,-12.6783 l -343.01246,0.1831 c -8.47577,0 -15.35281,5.6854 -15.34898,12.6868 l 0.0383,64.0815 c 3e-4,6.9971 6.88172,12.6655 15.35707,12.6698 l 343.01287,-0.1832 c 8.47919,0 15.3528,-5.6854 15.34856,-12.6825 l -0.0341,-64.0772"
       style="fill:#6ca2bc;fill-opacity:1;fill-rule:nonzero;stroke:none;stroke-width:0.0425875"
       id="path20" /><path
       d="m 699.93974,1719.3928 -77.50081,0.034 0.0468,81.7639 77.4966,-0.047 -0.0426,-81.751"
       style="fill:#f1c740;fill-opacity:1;fill-rule:nonzero;stroke:none;stroke-width:0.0425875"
       id="path22" /><path
       d="m 699.88438,1620.6535 -77.4923,0.043 0.0426,81.7426 77.49658,-0.034 -0.0469,-81.7511"
       style="fill:#f1c740;fill-opacity:1;fill-rule:nonzero;stroke:none;stroke-width:0.0425875"
       id="path24" /><path
       d="m 699.84179,1522.9747 -77.50508,0.034 0.0426,81.7553 77.50081,-0.043 -0.0384,-81.7468"
       style="fill:#f1c740;fill-opacity:1;fill-rule:nonzero;stroke:none;stroke-width:0.0425875"
       id="path26" /><path
       d="m 403.72803,1719.5461 -77.5072,0.043 0.0456,81.7468 77.50337,-0.038 -0.0417,-81.751"
       style="fill:#76a6ba;fill-opacity:1;fill-rule:nonzero;stroke:none;stroke-width:0.0425875"
       id="path28" /><path
       d="m 505.65111,1719.495 -77.50636,0.038 0.0434,81.7511 77.50548,-0.043 -0.0426,-81.7468"
       style="fill:#76a6ba;fill-opacity:1;fill-rule:nonzero;stroke:none;stroke-width:0.0425875"
       id="path30" /><path
       d="m 602.26097,1719.4396 -77.50087,0.043 0.0426,81.7468 77.50934,-0.034 -0.0511,-81.7553"
       style="fill:#76a6ba;fill-opacity:1;fill-rule:nonzero;stroke:none;stroke-width:0.0425875"
       id="path32" /><path
       d="m 403.67906,1620.8069 -77.51062,0.038 0.0473,81.751 77.50507,-0.038 -0.0417,-81.751"
       style="fill:#76a6ba;fill-opacity:1;fill-rule:nonzero;stroke:none;stroke-width:0.0425875"
       id="path34" /><path
       d="m 505.59998,1620.7558 -77.50761,0.038 0.0434,81.7468 77.50251,-0.03 -0.0383,-81.7553"
       style="fill:#76a6ba;fill-opacity:1;fill-rule:nonzero;stroke:none;stroke-width:0.0425875"
       id="path36" /><path
       d="m 602.21838,1620.7089 -77.50935,0.034 0.0469,81.751 77.50508,-0.038 -0.0426,-81.7468"
       style="fill:#76a6ba;fill-opacity:1;fill-rule:nonzero;stroke:none;stroke-width:0.0425875"
       id="path38" /><path
       d="m 403.62199,1523.1281 -77.49656,0.038 0.0379,81.751 77.50423,-0.038 -0.0456,-81.751"
       style="fill:#76a6ba;fill-opacity:1;fill-rule:nonzero;stroke:none;stroke-width:0.0425875"
       id="path40" /><path
       d="m 505.55313,1523.0727 -77.50889,0.038 0.0447,81.7596 77.50679,-0.043 -0.0426,-81.7553"
       style="fill:#76a6ba;fill-opacity:1;fill-rule:nonzero;stroke:none;stroke-width:0.0425875"
       id="path42" /><path
       d="m 602.16301,1523.0216 -77.50507,0.047 0.0426,81.7511 77.50508,-0.043 -0.0426,-81.7553"
       style="fill:#76a6ba;fill-opacity:1;fill-rule:nonzero;stroke:none;stroke-width:0.0425875"
       id="path44" /><path
       d="m 403.57472,1424.3888 -77.50721,0.038 0.0417,81.751 77.51062,-0.038 -0.0451,-81.7511"
       style="fill:#76a6ba;fill-opacity:1;fill-rule:nonzero;stroke:none;stroke-width:0.0425875"
       id="path46" /><path
       d="m 505.49776,1424.3335 -77.50292,0.038 0.04,81.7511 77.50551,-0.034 -0.0426,-81.7553"
       style="fill:#76a6ba;fill-opacity:1;fill-rule:nonzero;stroke:none;stroke-width:0.0425875"
       id="path48" /><path
       d="m 602.11616,1424.2866 -77.50935,0.038 0.0469,81.7553 77.50508,-0.043 -0.0426,-81.7511"
       style="fill:#76a6ba;fill-opacity:1;fill-rule:nonzero;stroke:none;stroke-width:0.0425875"
       id="path50" /><path
       d="m 699.79069,1424.2398 -77.50084,0.043 0.0426,81.7468 77.49658,-0.038 -0.0383,-81.751"
       style="fill:#f1c740;fill-opacity:1;fill-rule:nonzero;stroke:none;stroke-width:0.0425875"
       id="path52" /><path
       d="m 350.5562,1786.0167 33.02366,-0.013 -3e-4,-5.7663 -18.48299,-41.0928 h -9.58901 l 17.61208,38.9335 -22.56331,0.01 v 7.9298"
       style="fill:#ffffff;fill-opacity:1;fill-rule:nonzero;stroke:none;stroke-width:0.0425875"
       id="path54" /><path
       d="m 464.3003,1766.5627 c 2.16344,0 3.91974,0.5835 5.26595,1.7632 1.34193,1.1796 2.02204,2.8278 2.02162,4.9444 0,1.9675 -0.68223,3.5177 -2.05229,4.6463 -1.36962,1.1286 -3.11358,1.6949 -5.22719,1.6992 -2.10978,0 -3.85588,-0.5621 -5.22634,-1.6907 -1.37388,-1.1328 -2.05954,-2.683 -2.05826,-4.6506 -0.003,-2.1166 0.6682,-3.7605 2.01609,-4.9444 1.34066,-1.1796 3.09697,-1.7631 5.26042,-1.7674 z m -0.008,-20.9829 c 2.54801,0 4.59179,0.6218 6.1275,1.8697 1.53999,1.2477 2.3125,2.9555 2.31209,5.1232 0,2.1635 -0.7206,3.8287 -2.16175,5.0126 -1.44285,1.1796 -3.53347,1.7631 -6.2723,1.7716 -2.74221,0 -4.83284,-0.5877 -6.27399,-1.7674 -1.44245,-1.1796 -2.16729,-2.849 -2.16857,-5.0083 -6e-4,-2.1634 0.76913,-3.8711 2.30655,-5.1232 1.53826,-1.2521 3.58076,-1.8696 6.13047,-1.8782 z m 0.017,41.2461 c 5.14288,0 9.13545,-1.1243 11.9701,-3.3602 2.83974,-2.2358 4.2532,-5.3702 4.25066,-9.4075 0,-2.4063 -0.60433,-4.4718 -1.80996,-6.2051 -1.19885,-1.729 -2.80697,-3.1216 -4.82901,-4.1778 1.00677,-0.3833 1.99223,-0.9284 2.95599,-1.6184 0.95864,-0.7069 1.79804,-1.5289 2.5229,-2.4955 0.71761,-0.9626 1.30615,-2.057 1.76396,-3.2836 0.45527,-1.2222 0.6797,-2.5126 0.68397,-3.8584 -0.005,-4.5185 -1.57744,-8.0064 -4.7332,-10.4851 -3.14806,-2.4742 -7.41576,-3.7093 -12.79585,-3.705 -5.3903,0 -9.65715,1.2392 -12.80181,3.7178 -3.14637,2.4786 -4.71871,5.9708 -4.71956,10.4893 0.008,1.3543 0.2287,2.6362 0.69588,3.8585 0.45228,1.2265 1.0434,2.3168 1.76696,3.2792 0.72016,0.9668 1.557,1.7929 2.52288,2.4871 0.96249,0.6985 1.94498,1.2393 2.95558,1.6183 -2.02205,1.0647 -3.63101,2.4616 -4.82602,4.1907 -1.20352,1.7333 -1.80443,3.7945 -1.80315,6.2007 0.004,4.0416 1.41645,7.176 4.25747,9.4119 2.84187,2.2273 6.82594,3.3431 11.97221,3.3431"
       style="fill:#ffffff;fill-opacity:1;fill-rule:nonzero;stroke:none;stroke-width:0.0425875"
       id="path56" /><path
       d="m 560.60183,1762.0484 c 2.06973,0 3.9138,0.3663 5.52355,1.1116 1.60984,0.7453 2.98969,1.6481 4.14805,2.6958 -0.0468,2.1677 -0.33218,4.0798 -0.86026,5.7408 -0.52806,1.6524 -1.22651,3.062 -2.09105,4.2161 -0.86453,1.1542 -1.8483,2.0229 -2.95557,2.5979 -1.09877,0.5834 -2.25713,0.8688 -3.46239,0.8688 -2.2103,0 -4.07562,-0.8134 -5.58745,-2.453 -1.51615,-1.6354 -2.2699,-3.9394 -2.2742,-6.9163 -0.004,-2.3593 0.63455,-4.2545 1.90794,-5.6982 1.26912,-1.4395 3.15999,-2.1635 5.65138,-2.1635 z m -1.73332,-16.3663 c 3.60717,-0.01 6.33703,1.1541 8.18957,3.4879 1.85258,2.3295 2.84912,5.4682 2.9939,9.4076 -1.1541,-0.9625 -2.69153,-1.827 -4.61651,-2.5894 -1.92492,-0.7708 -4.17782,-1.1498 -6.7799,-1.1498 -1.96754,0 -3.83289,0.2981 -5.58748,0.8986 -1.75459,0.6005 -3.2963,1.5204 -4.6506,2.7426 -1.3415,1.2308 -2.41042,2.7767 -3.19831,4.6506 -0.80064,1.8738 -1.19669,4.0671 -1.19669,6.567 0.008,2.3508 0.40456,4.5781 1.20096,6.6692 0.78789,2.0868 1.92068,3.901 3.38574,5.4427 1.46924,1.5331 3.22383,2.7511 5.26807,3.6327 2.03995,0.8901 4.33967,1.333 6.89066,1.333 5.81317,0 10.39133,-2.0229 13.73445,-6.0602 3.33889,-4.0459 5.00409,-9.9868 4.99553,-17.8144 0,-4.0373 -0.49401,-7.6019 -1.47778,-10.6724 -0.9923,-3.0749 -2.36362,-5.6557 -4.11397,-7.7509 -1.75459,-2.0911 -3.86268,-3.6626 -6.31571,-4.7145 -2.45304,-1.0519 -5.11903,-1.5843 -8.0022,-1.5885 -2.35508,0.01 -4.59523,0.2044 -6.70752,0.6175 -2.11662,0.4089 -4.0331,1.0988 -5.76641,2.0612 l 2.30829,6.9929 c 2.60209,-1.4522 5.74506,-2.172 9.44591,-2.1634"
       style="fill:#ffffff;fill-opacity:1;fill-rule:nonzero;stroke:none;stroke-width:0.0425875"
       id="path58" /><path
       d="m 370.39603,1656.3334 0.006,17.2394 -12.48582,-17.2266 z m 1.23504,30.9356 h 7.86209 l -0.0136,-30.9356 h 5.18631 l -0.005,-7.4954 h -5.18759 l -0.004,-8.4324 h -9.23383 l 0.009,8.4366 -22.28394,0.01 0.006,5.9921 23.6642,32.4304"
       style="fill:#ffffff;fill-opacity:1;fill-rule:nonzero;stroke:none;stroke-width:0.0425875"
       id="path60" /><path
       d="m 461.71609,1647.1345 c 1.5868,0 2.95898,0.2087 4.10969,0.6473 1.15326,0.4301 2.1247,1.0306 2.92024,1.7972 0.79425,0.7708 1.38495,1.6481 1.76524,2.6319 0.38927,0.9838 0.58089,2.0272 0.58089,3.1387 0.003,2.4531 -0.70779,4.3312 -2.12213,5.6599 -1.41945,1.3202 -3.73577,1.9846 -6.96136,1.9888 l -12.98068,0.01 0.006,5.5491 1.88705,18.6789 26.8242,-0.021 -0.006,-8.0746 -19.03325,0.01 -0.65372,-8.0746 4.03773,-0.01 c 6.00527,0.01 10.57578,-1.3713 13.69616,-4.1054 3.12508,-2.7426 4.68462,-6.5883 4.67867,-11.5455 0.006,-2.4019 -0.42843,-4.5867 -1.30019,-6.5585 -0.86667,-1.9761 -2.10172,-3.6498 -3.7098,-5.0509 -1.61494,-1.3883 -3.57438,-2.4573 -5.88434,-3.1941 -2.30269,-0.7537 -4.90268,-1.1243 -7.78628,-1.1157 -3.31885,0 -6.25185,0.3151 -8.79476,0.9326 -2.54843,0.6346 -4.68888,1.4948 -6.41922,2.6064 l 2.38576,7.2782 c 1.63195,-0.9156 3.51901,-1.6737 5.6586,-2.2742 2.13918,-0.609 4.50705,-0.9071 7.1019,-0.9028"
       style="fill:#ffffff;fill-opacity:1;fill-rule:nonzero;stroke:none;stroke-width:0.0425875"
       id="path62" /><path
       d="m 563.29336,1664.1652 c -2.06125,0 -3.90103,-0.3662 -5.5151,-1.1072 -1.60984,-0.7453 -2.98967,-1.6524 -4.14806,-2.7001 0.0426,-2.1719 0.33645,-4.0756 0.86457,-5.7365 0.52808,-1.661 1.22226,-3.0663 2.09104,-4.2247 0.86026,-1.1542 1.84827,-2.0187 2.95557,-2.5936 1.10304,-0.5792 2.25713,-0.8603 3.45812,-0.8688 2.21027,0.01 4.07989,0.8177 5.59175,2.4488 1.51609,1.6311 2.27841,3.9436 2.27841,6.9205 0,2.3508 -0.63882,4.263 -1.90791,5.6982 -1.27336,1.4437 -3.16426,2.1592 -5.66839,2.1634 z m 1.74182,16.375 c -1.7759,0 -3.32608,-0.3195 -4.6463,-0.9412 -1.32873,-0.6176 -2.44877,-1.4991 -3.36017,-2.6234 -0.91136,-1.1328 -1.63538,-2.4914 -2.16344,-4.0714 -0.52385,-1.5928 -0.86881,-3.3474 -1.01359,-5.2638 1.15413,0.9582 2.69154,1.8227 4.61652,2.585 1.92068,0.7709 4.18635,1.1627 6.78416,1.1499 1.92072,0 3.76902,-0.2981 5.54916,-0.8943 1.78017,-0.609 3.33462,-1.5204 4.68465,-2.7469 1.34574,-1.2308 2.41472,-2.7725 3.20685,-4.6591 0.79637,-1.8696 1.19242,-4.0586 1.18394,-6.5542 0,-2.4062 -0.39611,-4.6463 -1.18824,-6.7076 -0.80064,-2.0697 -1.92919,-3.8712 -3.39422,-5.4086 -1.465,-1.5331 -3.23663,-2.7469 -5.29788,-3.6327 -2.074,-0.8901 -4.35671,-1.333 -6.85658,-1.333 -5.81747,0.01 -10.39136,2.0186 -13.73021,6.0602 -3.34313,4.0416 -5.00833,9.9783 -5.00403,17.8186 0,3.9905 0.494,7.521 1.48204,10.5958 0.98804,3.0749 2.35935,5.6599 4.11394,7.751 1.75886,2.0825 3.86268,3.671 6.30721,4.757 2.46157,1.0774 5.12756,1.6141 8.01073,1.6141 2.35508,0.01 4.48018,-0.3152 6.38388,-0.937 1.89513,-0.6218 3.68381,-1.4224 5.37029,-2.3849 l -2.31249,-6.9886 c -1.24785,0.8603 -2.59788,1.5459 -4.0416,2.0485 -1.43519,0.511 -2.99817,0.7666 -4.68462,0.7666"
       style="fill:#ffffff;fill-opacity:1;fill-rule:nonzero;stroke:none;stroke-width:0.0425875"
       id="path64" /><path
       d="m 362.41683,1579.7397 -9.37479,-2.304 0.002,6.929 11.75757,4.1693 h 6.99416 l -0.0188,-39.0825 10.38838,0.1405 -0.009,-7.9298 -30.57274,0.017 0.002,7.9298 10.81639,-0.1533 0.014,30.2883"
       style="fill:#ffffff;fill-opacity:1;fill-rule:nonzero;stroke:none;stroke-width:0.0425875"
       id="path66" /><path
       d="m 462.61937,1581.7072 c -2.21583,0 -4.32562,-0.2427 -6.34768,-0.7197 -2.01524,-0.4812 -3.89377,-1.1754 -5.62411,-2.0868 l -2.09019,6.9247 c 0.7704,0.4259 1.70818,0.8646 2.81248,1.2947 1.11323,0.4344 2.28141,0.8177 3.53391,1.1499 1.25378,0.3322 2.53396,0.609 3.85801,0.7964 1.32916,0.1831 2.63446,0.281 3.93338,0.2853 5.57471,-0.01 9.66097,-1.235 12.25629,-3.6838 2.59357,-2.4531 3.89248,-5.7025 3.88695,-9.7398 0.004,-1.8739 -0.38669,-3.7392 -1.15371,-5.5875 -0.77168,-1.844 -1.79505,-3.6668 -3.06968,-5.481 -1.27297,-1.8015 -2.74009,-3.5944 -4.3993,-5.366 -1.66094,-1.7759 -3.35847,-3.5305 -5.08751,-5.2639 l -4.54793,-4.5355 19.54897,-0.013 -0.008,-8.0703 -33.17101,0.01 0.002,6.1368 11.47394,11.7457 c 1.77334,1.8312 3.35164,3.4666 4.72891,4.9359 1.36664,1.465 2.52971,2.832 3.49559,4.1054 0.96292,1.2734 1.69669,2.5042 2.20093,3.6711 0.50553,1.1839 0.75976,2.4232 0.76104,3.7179 0,1.8227 -0.58047,3.2494 -1.73119,4.2587 -1.15284,1.0093 -2.90702,1.5119 -5.26254,1.5161"
       style="fill:#ffffff;fill-opacity:1;fill-rule:nonzero;stroke:none;stroke-width:0.0425875"
       id="path68" /><path
       d="m 559.63083,1548.3356 c 2.89168,0 5.24676,0.6857 7.06952,2.0613 1.827,1.3713 2.74263,3.1089 2.74263,5.2255 0,1.005 -0.22572,1.9079 -0.6814,2.7 -0.45995,0.8049 -1.08596,1.4565 -1.87386,1.9888 -0.79637,0.5281 -1.72051,0.937 -2.77668,1.2266 -1.05618,0.2896 -2.16771,0.4301 -3.31758,0.4429 h -8.07463 l 0.004,7.3549 h 8.0746 c 0.91137,0 1.80999,0.1491 2.70431,0.4301 0.89008,0.2896 1.68222,0.7027 2.38063,1.2564 0.69418,0.5579 1.24358,1.2052 1.65667,1.9462 0.41309,0.7496 0.61327,1.6098 0.61751,2.5638 0,1.827 -0.7325,3.3048 -2.1975,4.4419 -1.46927,1.1286 -3.61994,1.6865 -6.44775,1.6907 -2.12086,0 -4.28431,-0.2385 -6.49885,-0.7197 -2.20606,-0.4727 -4.17784,-1.1754 -5.90694,-2.0868 l -2.09104,6.9247 c 1.53743,0.8177 3.66679,1.6056 6.37961,2.3807 2.71711,0.7665 5.66418,1.1413 8.84121,1.1456 2.78519,0 5.24676,-0.3535 7.38466,-1.0519 2.1379,-0.7027 3.93508,-1.6397 5.37456,-2.8108 1.43519,-1.1797 2.53395,-2.5723 3.27499,-4.1821 0.74951,-1.6183 1.12007,-3.3091 1.11577,-5.0935 0.004,-2.5467 -0.6686,-4.6293 -1.98458,-6.2263 -1.32022,-1.6141 -3.06627,-2.8832 -5.22975,-3.786 1.14986,-0.2896 2.24436,-0.7666 3.27926,-1.4139 1.03486,-0.6431 1.94623,-1.4395 2.73409,-2.3764 0.7964,-0.9455 1.43521,-2.0016 1.91644,-3.2111 0.47699,-1.2052 0.71552,-2.4956 0.71973,-3.8882 -0.004,-2.2657 -0.47696,-4.2929 -1.40964,-6.0986 -0.93688,-1.8057 -2.21451,-3.3303 -3.82435,-4.5781 -1.61408,-1.2521 -3.53903,-2.2061 -5.77061,-2.8832 -2.24009,-0.6601 -4.65481,-1.0008 -7.25266,-1.0008 -3.31333,0 -6.40092,0.3534 -9.26281,1.0519 -2.86189,0.6984 -5.0807,1.5204 -6.6692,2.4871 l 2.09534,6.9205 c 1.72901,-0.9071 3.76048,-1.6098 6.09422,-2.0911 2.32954,-0.4897 4.59951,-0.7282 6.80978,-0.7325"
       style="fill:#ffffff;fill-opacity:1;fill-rule:nonzero;stroke:none;stroke-width:0.0425875"
       id="path70" /><path
       d="m 366.45967,1446.5131 c 2.74349,0 4.9525,1.3755 6.6394,4.1139 1.67923,2.7384 2.52459,6.9205 2.52586,12.5421 0.009,5.6258 -0.84068,9.8079 -2.51437,12.5462 -1.68391,2.7469 -3.88867,4.1097 -6.63087,4.114 -2.74179,0 -4.95464,-1.3628 -6.63727,-4.1012 -1.67966,-2.7469 -2.52289,-6.9247 -2.528,-12.5463 -0.009,-5.63 0.83216,-9.8164 2.51437,-12.5548 1.68093,-2.7384 3.89378,-4.1139 6.63088,-4.1139 z m 0.0222,40.9649 c 2.83718,0 5.39541,-0.5579 7.67811,-1.6651 2.28056,-1.1158 4.23021,-2.7129 5.84301,-4.7997 1.60214,-2.0868 2.844,-4.6377 3.71023,-7.6487 0.85941,-3.0024 1.28998,-6.4052 1.28827,-10.1912 -0.007,-3.8073 -0.43226,-7.2101 -1.29977,-10.2125 -0.87475,-3.0024 -2.10809,-5.5577 -3.71747,-7.6444 -1.61918,-2.0911 -3.56202,-3.6881 -5.84727,-4.7869 -2.28312,-1.103 -4.84348,-1.6566 -7.67896,-1.6566 -2.83718,0 -5.39754,0.5536 -7.67853,1.6651 -2.28738,1.0988 -4.2298,2.6958 -5.84089,4.7954 -1.60768,2.091 -2.84059,4.6378 -3.70852,7.6402 -0.86325,3.0067 -1.29381,6.4094 -1.29211,10.2082 0.002,3.7946 0.43227,7.2016 1.30148,10.204 0.87262,3.0024 2.10467,5.5534 3.71746,7.6445 1.61067,2.0868 3.56203,3.6795 5.84387,4.7911 2.28184,1.1072 4.84348,1.6566 7.68109,1.6566"
       style="fill:#ffffff;fill-opacity:1;fill-rule:nonzero;stroke:none;stroke-width:0.0425875"
       id="path72" /><path
       d="m 459.22258,1461.3719 c 0.002,1.4863 0.50637,2.8022 1.51825,3.9308 1.00677,1.1286 2.44793,1.6865 4.32647,1.6865 1.87727,0 3.3129,-0.5665 4.32263,-1.695 1.01147,-1.1329 1.51102,-2.4403 1.51102,-3.9266 0,-1.4991 -0.50508,-2.8023 -1.51314,-3.9308 -1.0136,-1.1329 -2.45346,-1.6993 -4.32903,-1.6993 -1.87428,0 -3.31714,0.575 -4.32349,1.6993 -1.01613,1.1328 -1.50717,2.4402 -1.51271,3.9351"
       style="fill:#ffffff;fill-opacity:1;fill-rule:nonzero;stroke:none;stroke-width:0.0425875"
       id="path74" /><path
       d="m 577.33018,1462.922 -31.008,0.01 0.004,6.6394 31.00797,-0.017 z m -0.004,-13.2702 -31.01226,0.017 v 6.6351 l 31.01226,-0.017 v -6.6351"
       style="fill:#ffffff;fill-opacity:1;fill-rule:nonzero;stroke:none;stroke-width:0.0425875"
       id="path76" /><path
       d="m 660.43128,1652.6581 h -0.14479 l -7.57632,-12.4058 -9.81222,0.01 12.55914,18.0146 -11.88621,16.8093 h 9.73551 l 6.91194,-11.175 h 0.14905 l 6.78419,11.1707 h 9.7313 l -11.69027,-16.8007 12.8955,-18.0273 h -9.80368 l -7.85314,12.4058"
       style="fill:#ffffff;fill-opacity:1;fill-rule:nonzero;stroke:none;stroke-width:0.0425875"
       id="path78" /><path
       d="m 672.84127,1568.0324 v -7.3549 l -20.91046,0.013 v 7.3591 l 20.91046,-0.017"
       style="fill:#ffffff;fill-opacity:1;fill-rule:nonzero;stroke:none;stroke-width:0.0425875"
       id="path80" /><path
       d="m 679.0761,1456.3806 -11.46458,0.01 -0.008,-11.6179 -8.7943,0.01 0.004,11.6094 h -11.46458 l 0.008,7.3591 11.46032,-0.01 0.0129,11.6136 h 8.79436 l -0.004,-11.6137 h 11.46034 l -0.004,-7.3549"
       style="fill:#ffffff;fill-opacity:1;fill-rule:nonzero;stroke:none;stroke-width:0.0425875"
       id="path82" /><path
       d="m 679.78729,1756.2055 -35.73944,0.017 0.004,8.1385 35.74372,-0.021 -0.008,-8.1342"
       style="fill:#ffffff;fill-opacity:1;fill-rule:nonzero;stroke:none;stroke-width:0.0425875"
       id="path84" /><path
       d="m 668.11836,1777.6142 c 0,-2.8235 -2.29551,-5.1275 -5.12756,-5.119 -2.83207,0 -5.13183,2.2955 -5.13183,5.1275 0.004,2.8363 2.30399,5.1403 5.14037,5.1361 2.82781,0 5.12323,-2.3083 5.11902,-5.1446"
       style="fill:#ffffff;fill-opacity:1;fill-rule:nonzero;stroke:none;stroke-width:0.0425875"
       id="path86" /><path
       d="m 668.10132,1741.172 c 0.004,-2.832 -2.29975,-5.1318 -5.1361,-5.1318 -2.82777,0 -5.12753,2.304 -5.12326,5.1318 0,2.8406 2.29972,5.1361 5.13183,5.1404 2.83205,0 5.13174,-2.3125 5.12753,-5.1404"
       style="fill:#ffffff;fill-opacity:1;fill-rule:nonzero;stroke:none;stroke-width:0.0425875"
       id="path88" /><path
       d="m 684.6934,1923.4978 -119.56027,0.064 -190.20195,-89.3402 309.71539,-0.1617 c 8.47916,0 15.35704,5.6726 15.36131,12.6783 l 0.0341,64.0772 c 0.004,6.9971 -6.86937,12.6783 -15.34856,12.6825"
       style="fill:#6ca2bc;fill-opacity:1;fill-rule:nonzero;stroke:none;stroke-width:0.0425875"
       id="path90" /><path
       d="m 341.68053,1923.681 c -8.47535,0 -15.35664,-5.6727 -15.35707,-12.6698 l -0.0383,-64.0815 c -0.004,-7.0014 6.87321,-12.6868 15.34898,-12.6868 l 33.29707,-0.021 190.20195,89.3402 -223.4526,0.1192"
       style="fill:#89b6c8;fill-opacity:1;fill-rule:nonzero;stroke:none;stroke-width:0.0425875"
       id="path92" /><path
       d="m 621.95767,1939.2851 c 0.008,-2.0187 -1.62258,-3.6626 -3.63695,-3.6711 l -22.44363,-0.094 c -2.0144,-0.01 -3.65829,1.6183 -3.66683,3.637 l -0.0766,18.2658 c -0.008,2.0144 1.62258,3.6583 3.63698,3.6668 l 22.43936,0.094 c 2.01867,0.013 3.65833,-1.6226 3.67107,-3.637 l 0.0766,-18.2615"
       style="fill:#89b6c8;fill-opacity:1;fill-rule:nonzero;stroke:none;stroke-width:0.0425875"
       id="path94" /><path
       d="m 585.18336,1939.1445 c 0.008,-2.0186 -1.61405,-3.6625 -3.63275,-3.671 l -22.4436,-0.094 c -2.01866,-0.013 -3.65832,1.614 -3.66683,3.6369 l -0.0766,18.2616 c -0.008,2.0144 1.61405,3.6583 3.63274,3.6668 l 22.44361,0.1022 c 2.01869,0 3.65829,-1.6226 3.66682,-3.6413 l 0.0766,-18.2615"
       style="fill:#89b6c8;fill-opacity:1;fill-rule:nonzero;stroke:none;stroke-width:0.0425875"
       id="path96" /><path
       d="m 659.16215,1939.4299 c 0.008,-2.0187 -1.62258,-3.6583 -3.63695,-3.6711 l -22.44366,-0.098 c -2.0144,-0.01 -3.65827,1.6226 -3.66677,3.6413 l -0.0766,18.2615 c -0.0129,2.0144 1.61831,3.6583 3.63271,3.6711 l 22.44363,0.094 c 2.01867,0.01 3.65826,-1.6226 3.66677,-3.637 l 0.0809,-18.2615"
       style="fill:#89b6c8;fill-opacity:1;fill-rule:nonzero;stroke:none;stroke-width:0.0425875"
       id="path98" /><path
       d="m 696.67753,1939.5746 c 0.008,-2.0229 -1.62258,-3.6625 -3.63698,-3.671 l -22.43934,-0.094 c -2.01869,-0.013 -3.66256,1.6141 -3.67109,3.637 l -0.0809,18.2615 c -0.004,2.0144 1.62682,3.6583 3.64122,3.6711 l 22.43936,0.094 c 2.0187,0.013 3.66253,-1.6183 3.6668,-3.637 l 0.0809,-18.2616"
       style="fill:#89b6c8;fill-opacity:1;fill-rule:nonzero;stroke:none;stroke-width:0.0425875"
       id="path100" /></g></svg>
