<?xml version="1.0" encoding="UTF-8" standalone="no"?>
<svg
   version="1.1"
   id="svg2"
   xml:space="preserve"
   width="1988.7765"
   height="2628.9907"
   viewBox="0 0 1988.7765 2628.9907"
   sodipodi:docname="vecteezy_calculator-vector-icon-with-long-shadow_.svg"
   inkscape:version="1.1.1 (3bf5ae0d25, 2021-09-20)"
   xmlns:inkscape="http://www.inkscape.org/namespaces/inkscape"
   xmlns:sodipodi="http://sodipodi.sourceforge.net/DTD/sodipodi-0.dtd"
   xmlns="http://www.w3.org/2000/svg"
   xmlns:svg="http://www.w3.org/2000/svg"
   xmlns:rdf="http://www.w3.org/1999/02/22-rdf-syntax-ns#"
   xmlns:cc="http://creativecommons.org/ns#"
   xmlns:dc="http://purl.org/dc/elements/1.1/"><metadata
     id="metadata8"><rdf:RDF><cc:Work
         rdf:about=""><dc:format>image/svg+xml</dc:format><dc:type
           rdf:resource="http://purl.org/dc/dcmitype/StillImage" /></cc:Work></rdf:RDF></metadata><defs
     id="defs6" /><sodipodi:namedview
     pagecolor="#ffffff"
     bordercolor="#666666"
     borderopacity="1"
     objecttolerance="10"
     gridtolerance="10"
     guidetolerance="10"
     inkscape:pageopacity="0"
     inkscape:pageshadow="2"
     inkscape:window-width="1920"
     inkscape:window-height="1017"
     id="namedview4"
     inkscape:pagecheckerboard="0"
     showgrid="false"
     inkscape:zoom="0.156"
     inkscape:cx="-727.5641"
     inkscape:cy="580.12821"
     inkscape:window-x="-8"
     inkscape:window-y="-8"
     inkscape:window-maximized="1"
     inkscape:current-layer="g10"
     fit-margin-top="0"
     fit-margin-left="0"
     fit-margin-right="0"
     fit-margin-bottom="0" /><g
     id="g10"
     inkscape:groupmode="layer"
     inkscape:label="ink_ext_XXXXXX"
     transform="matrix(1.3333333,0,0,-1.3333333,-383.79641,2642.4399)"><path
       d="M 1778.5229,117.61771 C 1778.4801,58.205833 1730.3047,10.044382 1670.8645,10.086882 L 395.39798,10.73868 C 335.97052,10.76703 287.82324,58.985142 287.84732,118.39702 l 0.90967,1755.88798 c 0.0198,59.4118 48.23797,107.5593 107.64984,107.545 l 1275.47787,-0.6659 c 59.4261,-0.028 107.5733,-48.2323 107.545,-107.6443 l -0.9068,-1755.90209"
       style="fill:#3e4c6b;fill-opacity:1;fill-rule:nonzero;stroke:none;stroke-width:0.141693"
       id="path18" /><path
       d="m 1659.1465,1532.3657 c -0.014,-23.3086 -22.8976,-42.1963 -51.1086,-42.182 l -1141.23656,0.6092 c -28.19974,0 -51.08033,18.916 -51.06758,42.2104 l 0.12753,213.2055 c 9.9e-4,23.28 22.89617,42.1393 51.0945,42.1536 l 1141.23791,-0.6093 c 28.2111,-0.014 51.0803,-18.9161 51.0662,-42.1961 l -0.1134,-213.1913"
       style="fill:#6ca2bc;fill-opacity:1;fill-rule:nonzero;stroke:none;stroke-width:0.141693"
       id="path20" /><path
       d="m 1658.9198,1108.6753 -257.8529,0.1133 0.1558,272.0364 257.8389,-0.1559 -0.1418,-271.9938"
       style="fill:#f1c740;fill-opacity:1;fill-rule:nonzero;stroke:none;stroke-width:0.141693"
       id="path22" /><path
       d="m 1658.7356,780.16001 -257.8246,0.1417 0.1417,271.96549 257.8388,-0.1134 -0.1559,-271.9939"
       style="fill:#f1c740;fill-opacity:1;fill-rule:nonzero;stroke:none;stroke-width:0.141693"
       id="path24" /><path
       d="m 1658.5939,455.17294 -257.8671,0.11339 0.1418,272.00806 257.8529,-0.14169 -0.1276,-271.97972"
       style="fill:#f1c740;fill-opacity:1;fill-rule:nonzero;stroke:none;stroke-width:0.141693"
       id="path26" /><path
       d="m 673.39399,1109.1853 -257.87418,0.1418 0.15161,271.9797 257.86141,-0.1277 -0.13884,-271.9938"
       style="fill:#76a6ba;fill-opacity:1;fill-rule:nonzero;stroke:none;stroke-width:0.141693"
       id="path28" /><path
       d="m 1012.5022,1109.0153 -257.87137,0.1275 0.14453,271.9939 257.86844,-0.1416 -0.1416,-271.9798"
       style="fill:#76a6ba;fill-opacity:1;fill-rule:nonzero;stroke:none;stroke-width:0.141693"
       id="path30" /><path
       d="m 1333.9328,1108.8311 -257.8531,0.1417 0.1418,271.9797 257.8813,-0.1134 -0.17,-272.008"
       style="fill:#76a6ba;fill-opacity:1;fill-rule:nonzero;stroke:none;stroke-width:0.141693"
       id="path32" /><path
       d="m 673.23104,780.67011 -257.88551,0.12752 0.15728,271.99387 257.86709,-0.1275 -0.13886,-271.99389"
       style="fill:#76a6ba;fill-opacity:1;fill-rule:nonzero;stroke:none;stroke-width:0.141693"
       id="path34" /><path
       d="m 1012.3321,780.50008 -257.87555,0.12752 0.14452,271.9797 257.85853,-0.1 -0.1275,-272.00797"
       style="fill:#76a6ba;fill-opacity:1;fill-rule:nonzero;stroke:none;stroke-width:0.141693"
       id="path36" /><path
       d="m 1333.7911,780.34421 -257.8813,0.11339 0.1559,271.9938 257.8671,-0.1275 -0.1417,-271.97965"
       style="fill:#76a6ba;fill-opacity:1;fill-rule:nonzero;stroke:none;stroke-width:0.141693"
       id="path38" /><path
       d="m 673.04117,455.68304 -257.83875,0.12752 0.1261,271.99389 257.86426,-0.12753 -0.15161,-271.99388"
       style="fill:#76a6ba;fill-opacity:1;fill-rule:nonzero;stroke:none;stroke-width:0.141693"
       id="path40" /><path
       d="m 1012.1762,455.49884 -257.87976,0.12751 0.14878,272.02224 257.87278,-0.14171 -0.1418,-272.00804"
       style="fill:#76a6ba;fill-opacity:1;fill-rule:nonzero;stroke:none;stroke-width:0.141693"
       id="path42" /><path
       d="m 1333.6069,455.3288 -257.8671,0.15587 0.1417,271.99388 257.8671,-0.14169 -0.1417,-272.00806"
       style="fill:#76a6ba;fill-opacity:1;fill-rule:nonzero;stroke:none;stroke-width:0.141693"
       id="path44" /><path
       d="m 672.88389,127.16782 -257.87418,0.12752 0.13885,271.99389 257.88553,-0.12754 -0.1502,-271.99387"
       style="fill:#76a6ba;fill-opacity:1;fill-rule:nonzero;stroke:none;stroke-width:0.141693"
       id="path46" /><path
       d="m 1011.992,126.98361 -257.85993,0.12753 0.1332,271.99388 257.86853,-0.11339 -0.1418,-272.00807"
       style="fill:#76a6ba;fill-opacity:1;fill-rule:nonzero;stroke:none;stroke-width:0.141693"
       id="path48" /><path
       d="m 1333.451,126.82775 -257.8813,0.12752 0.1559,272.00805 257.8671,-0.14168 -0.1417,-271.99389"
       style="fill:#76a6ba;fill-opacity:1;fill-rule:nonzero;stroke:none;stroke-width:0.141693"
       id="path50" /><path
       d="m 1658.4239,126.67189 -257.853,0.1417 0.1417,271.97971 257.8388,-0.12752 -0.1275,-271.99389"
       style="fill:#f1c740;fill-opacity:1;fill-rule:nonzero;stroke:none;stroke-width:0.141693"
       id="path52" /><path
       d="m 496.48601,1330.3397 109.87302,-0.043 -10e-4,-19.1851 -61.49476,-136.7197 h -31.90359 l 58.59714,129.5357 -75.07038,0.028 v 26.3832"
       style="fill:#ffffff;fill-opacity:1;fill-rule:nonzero;stroke:none;stroke-width:0.141693"
       id="path54" /><path
       d="m 874.92394,1265.6144 c 7.19799,0.014 13.04138,1.9412 17.52035,5.8661 4.46473,3.9249 6.72752,9.4084 6.72614,16.4505 0,6.5463 -2.26986,11.7039 -6.8282,15.4589 -4.55684,3.7548 -10.35916,5.6392 -17.39137,5.6534 -7.01946,0.014 -12.82888,-1.8702 -17.38856,-5.6252 -4.57102,-3.769 -6.85228,-8.9267 -6.84803,-15.4729 -0.0104,-7.0421 2.22317,-12.5115 6.70775,-16.4505 4.4605,-3.9249 10.30391,-5.8661 17.50192,-5.8803 z m -0.0269,-69.8122 c 8.47749,0 15.27733,2.0688 20.38679,6.2205 5.1237,4.1514 7.69392,9.8334 7.69254,17.0455 0,7.198 -2.39748,12.7383 -7.19233,16.6774 -4.80052,3.9247 -11.75622,5.866 -20.86857,5.8944 -9.12362,-0.014 -16.07933,-1.9554 -20.87421,-5.8804 -4.79915,-3.9248 -7.21076,-9.4791 -7.21502,-16.663 -0.002,-7.198 2.55897,-12.8798 7.6741,-17.0457 5.11795,-4.1658 11.91354,-6.2203 20.3967,-6.2487 z m 0.0567,137.2297 c 17.11085,0 30.39454,-3.7406 39.82571,-11.1795 9.44807,-7.4389 14.15081,-17.8675 14.14236,-31.3 0,-8.0057 -2.01067,-14.8778 -6.02193,-20.6447 -3.9887,-5.7527 -9.33907,-10.3861 -16.06659,-13.9001 3.34964,-1.2752 6.62835,-3.089 9.83488,-5.3844 3.1895,-2.352 5.98224,-5.0868 8.39395,-8.3031 2.38754,-3.2024 4.34566,-6.8438 5.86885,-10.9246 1.51474,-4.0666 2.26142,-8.3598 2.27565,-12.8373 -0.0163,-15.0337 -5.24831,-26.6383 -15.74782,-34.8849 -10.47394,-8.2322 -24.67299,-12.3414 -42.57308,-12.3272 -17.93408,0 -32.13031,4.1232 -42.59291,12.3697 -10.46828,8.2465 -15.6996,19.8655 -15.70242,34.899 0.0254,4.5059 0.76089,8.7708 2.31526,12.8374 1.50478,4.0808 3.47148,7.7082 5.87884,10.9104 2.39604,3.2164 5.18029,5.9652 8.39389,8.2749 3.20227,2.3237 6.47112,4.1232 9.83351,5.3842 -6.72759,3.5424 -12.08075,8.1898 -16.05666,13.9427 -4.00425,5.7669 -6.00353,12.6248 -5.99928,20.6305 0.0141,13.4467 4.7127,23.8752 14.16505,31.3142 9.45517,7.4106 22.71056,11.1228 39.83274,11.1228"
       style="fill:#ffffff;fill-opacity:1;fill-rule:nonzero;stroke:none;stroke-width:0.141693"
       id="path56" /><path
       d="m 1195.3287,1250.5949 c 6.8862,-0.014 13.0216,1.2186 18.3774,3.6983 5.3561,2.4796 9.947,5.4834 13.801,8.9691 -0.1558,7.2122 -1.1052,13.5741 -2.8622,19.1002 -1.7569,5.4977 -4.0807,10.1877 -6.9571,14.0276 -2.8764,3.8399 -6.1495,6.7304 -9.8335,8.6434 -3.6557,1.9411 -7.5097,2.8904 -11.5197,2.8904 -7.3539,0 -13.56,-2.7063 -18.59,-8.1614 -5.0444,-5.4411 -7.5522,-13.1067 -7.5665,-23.011 -0.014,-7.8498 2.1112,-14.1552 6.3479,-18.9585 4.2225,-4.7893 10.5136,-7.1981 18.8027,-7.1981 z m -5.7669,-54.4526 c 12.0014,-0.028 21.0839,3.84 27.2475,11.6046 6.1637,7.7507 9.4793,18.1935 9.961,31.3001 -3.8398,-3.2023 -8.955,-6.0787 -15.3596,-8.615 -6.4044,-2.5646 -13.9,-3.8257 -22.5574,-3.8257 -6.5462,-0.014 -12.7524,0.9919 -18.5901,2.9897 -5.8377,1.998 -10.9671,5.0585 -15.473,9.1251 -4.4633,4.0949 -8.0197,9.2384 -10.6411,15.4729 -2.6638,6.2345 -3.9815,13.5316 -3.9815,21.849 0.028,7.8215 1.346,15.232 3.9957,22.1891 2.6214,6.943 6.3903,12.9791 11.2647,18.1084 4.8883,5.101 10.726,9.1533 17.5274,12.0865 6.7871,2.9613 14.4385,4.435 22.9259,4.435 19.341,-0.014 34.573,-6.7304 45.6959,-20.1629 11.1088,-13.461 16.6491,-33.2271 16.6206,-59.2703 0,-13.4325 -1.6436,-25.2923 -4.9167,-35.5083 -3.3015,-10.2302 -7.864,-18.8168 -13.6876,-25.788 -5.8377,-6.9572 -12.8515,-12.1857 -21.013,-15.6855 -8.1615,-3.4998 -17.0315,-5.271 -26.6241,-5.2851 -7.8356,0.028 -15.2888,0.6802 -22.3166,2.0545 -7.0422,1.3603 -13.4185,3.6558 -19.1854,6.8579 l 7.6799,23.266 c 8.6574,-4.8317 19.1144,-7.2263 31.4275,-7.198"
       style="fill:#ffffff;fill-opacity:1;fill-rule:nonzero;stroke:none;stroke-width:0.141693"
       id="path58" /><path
       d="m 562.49512,898.8704 0.0199,57.35731 -41.54155,-57.31484 z m 4.1091,102.9258 26.15795,-0.014 -0.0454,-102.92575 h 17.25537 l -0.0156,-24.93797 h -17.25962 l -0.0142,-28.05527 h -30.72188 l 0.0297,28.06938 -74.14087,0.0278 0.0213,19.93624 78.73313,107.89917"
       style="fill:#ffffff;fill-opacity:1;fill-rule:nonzero;stroke:none;stroke-width:0.141693"
       id="path60" /><path
       d="m 866.32601,868.26468 c 5.27947,-0.0139 9.84483,0.69437 13.67336,2.1538 3.83701,1.43109 7.06909,3.42891 9.71593,5.97948 2.64255,2.56456 4.60786,5.48342 5.87313,8.75658 1.29513,3.27305 1.93268,6.74454 1.93268,10.44281 0.0116,8.16151 -2.3549,14.41012 -7.06053,18.831 -4.72265,4.39241 -12.4293,6.60278 -23.16114,6.61702 l -43.18803,0.0278 0.0184,18.46257 6.27841,62.14656 89.24678,-0.071 -0.0196,-26.86501 -63.32551,0.0278 -2.17498,-26.86498 13.43391,-0.0278 c 19.98013,0.0278 35.18667,-4.56251 45.56851,-13.65917 10.39745,-9.125 15.58617,-21.91993 15.56638,-38.41303 0.0196,-7.99141 -1.42541,-15.26034 -4.32587,-21.82067 -2.88347,-6.57456 -6.99262,-12.14315 -12.34287,-16.80481 -5.37304,-4.6192 -11.8923,-8.17562 -19.57777,-10.62703 -7.66129,-2.50791 -16.3117,-3.74063 -25.90574,-3.71229 -11.04212,-0.0142 -20.80052,1.04853 -29.26102,3.10309 -8.4789,2.11122 -15.60039,4.97338 -21.35738,8.67154 l 7.93764,24.21537 c 5.42967,-3.04637 11.70809,-5.56847 18.82674,-7.56641 7.11725,-2.02617 14.99538,-3.01802 23.62873,-3.00391"
       style="fill:#ffffff;fill-opacity:1;fill-rule:nonzero;stroke:none;stroke-width:0.141693"
       id="path62" /><path
       d="m 1204.2837,924.92773 c -6.858,0 -12.9791,-1.21852 -18.3493,-3.68403 -5.3561,-2.47964 -9.9469,-5.49767 -13.801,-8.98327 0.1418,-7.22634 1.1194,-13.56 2.8765,-19.08613 1.757,-5.52601 4.0666,-10.2019 6.9571,-14.05592 2.8622,-3.83991 6.1494,-6.71619 9.8335,-8.62909 3.6699,-1.92701 7.5097,-2.86216 11.5055,-2.89051 7.3538,0.0278 13.5742,2.72054 18.6043,8.14739 5.0442,5.42673 7.5805,13.12077 7.5805,23.02507 0,7.82144 -2.1254,14.18344 -6.3478,18.95851 -4.2366,4.8034 -10.5278,7.18387 -18.8593,7.19798 z m 5.7952,54.48103 c -5.9086,0 -11.0662,-1.06278 -15.4587,-3.13142 -4.4208,-2.05463 -8.1473,-4.98761 -11.1796,-8.72835 -3.0322,-3.76898 -5.4411,-8.28902 -7.198,-13.54589 -1.7429,-5.29922 -2.8906,-11.13706 -3.3723,-17.51318 3.8399,3.18811 8.955,6.0644 15.3596,8.60073 6.3903,2.56468 13.9284,3.86825 22.5716,3.82567 6.3904,0.0139 12.5399,-0.99174 18.4626,-2.97545 5.9228,-2.02628 11.0946,-5.05854 15.5863,-9.13924 4.4774,-4.09492 8.034,-9.22417 10.6695,-15.50123 2.6496,-6.22026 3.9673,-13.50331 3.9391,-21.80656 0,-8.00564 -1.3179,-15.45866 -3.9534,-22.31659 -2.6638,-6.88628 -6.4186,-12.87998 -11.2929,-17.99499 -4.8742,-5.10101 -10.7686,-9.13925 -17.6266,-12.08646 -6.9004,-2.96139 -14.4952,-4.435 -22.8125,-4.435 -19.3553,0.0283 -34.5731,6.7162 -45.6818,20.16292 -11.1229,13.44661 -16.6632,33.19863 -16.6489,59.28431 0,13.27664 1.6436,25.02302 4.9309,35.25327 3.2873,10.23026 7.8498,18.831 13.6875,25.78808 5.8519,6.92887 12.8515,12.21398 20.9847,15.82709 8.1899,3.58483 17.0599,5.37023 26.6525,5.37023 7.8356,0.028 14.906,-1.0485 21.2398,-3.1173 6.3053,-2.06872 12.2564,-4.73257 17.8675,-7.9348 l -7.6939,-23.25175 c -4.1517,2.86216 -8.6434,5.14336 -13.4468,6.81535 -4.775,1.70034 -9.9752,2.55056 -15.5862,2.55056"
       style="fill:#ffffff;fill-opacity:1;fill-rule:nonzero;stroke:none;stroke-width:0.141693"
       id="path64" /><path
       d="m 535.94753,644.03555 -31.19088,-7.6656 0.008,23.05346 39.11861,13.87174 23.27024,-0.0142 -0.0624,-130.03166 34.56317,0.46757 -0.0283,-26.38322 -101.71856,0.0567 0.006,26.38324 35.98718,-0.51011 0.0467,100.77207"
       style="fill:#ffffff;fill-opacity:1;fill-rule:nonzero;stroke:none;stroke-width:0.141693"
       id="path66" /><path
       d="m 869.33131,650.58176 c -7.37228,0 -14.39175,-0.80765 -21.11933,-2.39461 -6.70491,-1.60113 -12.95499,-3.91074 -18.71198,-6.94295 l -6.95429,23.03928 c 2.56322,1.41692 5.68331,2.87637 9.3574,4.30746 3.70385,1.44527 7.59049,2.7205 11.75769,3.82572 4.17144,1.1052 8.43073,2.0262 12.83596,2.64965 4.42225,0.60928 8.76513,0.93517 13.08677,0.94934 18.54761,-0.0283 32.14301,-4.10909 40.77788,-12.25644 8.62908,-8.16152 12.95068,-18.97269 12.93228,-32.40519 0.0139,-6.23449 -1.28656,-12.44065 -3.83852,-18.59011 -2.56745,-6.13532 -5.9723,-12.19977 -10.21313,-18.2359 -4.23528,-5.99362 -9.11656,-11.95889 -14.6369,-17.85332 -5.52612,-5.9086 -11.17397,-11.74635 -16.92665,-17.51325 l -15.13143,-15.0903 65.04139,-0.0425 -0.0254,-26.85083 -110.36324,0.0283 0.007,20.41797 38.17495,39.07893 c 5.90009,6.0928 11.15123,11.5338 15.73357,16.42222 4.54694,4.87423 8.41659,9.42257 11.63017,13.6592 3.20373,4.23662 5.64506,8.33155 7.32272,12.21394 1.68194,3.93906 2.52778,8.06233 2.53205,12.3698 0,6.06446 -1.93128,10.81117 -5.75985,14.1693 -3.83562,3.35813 -9.67195,5.03011 -17.509,5.04427"
       style="fill:#ffffff;fill-opacity:1;fill-rule:nonzero;stroke:none;stroke-width:0.141693"
       id="path68" /><path
       d="m 1192.0981,539.55112 c 9.6209,0.0142 17.4565,2.28126 23.521,6.85794 6.0786,4.56252 9.125,10.34359 9.125,17.38573 0,3.34396 -0.751,6.34785 -2.2671,8.98335 -1.5303,2.678 -3.6131,4.8459 -6.2345,6.61706 -2.6496,1.75699 -5.7243,3.11724 -9.2383,4.08076 -3.514,0.9635 -7.2122,1.43109 -11.0379,1.47361 l -26.8651,-0.0143 0.014,24.47039 26.865,-0.0141 c 3.0322,0 6.022,0.49593 8.9975,1.43109 2.9614,0.96352 5.5969,2.33794 7.9206,4.17995 2.3096,1.85618 4.1375,4.00991 5.5119,6.47537 1.3744,2.49379 2.0404,5.356 2.0545,8.52992 0,6.07862 -2.4371,10.99537 -7.3113,14.77858 -4.8884,3.75486 -12.0439,5.61104 -21.4523,5.62521 -7.0563,0 -14.2543,-0.79347 -21.6223,-2.39461 -7.3398,-1.5728 -13.9001,-3.91073 -19.653,-6.94296 l -6.9571,23.03929 c 5.1152,2.7205 12.1998,5.34182 21.2256,7.92063 9.0401,2.55048 18.8453,3.79738 29.4156,3.81154 9.2666,-0.0141 17.4565,-1.17605 24.5695,-3.49981 7.113,-2.33794 13.0924,-5.45519 17.8817,-9.35174 4.775,-3.92491 8.4307,-8.55826 10.8962,-13.91426 2.4937,-5.38433 3.7266,-11.00955 3.7123,-16.94649 0.014,-8.47322 -2.2245,-15.40202 -6.6029,-20.71551 -4.3925,-5.37016 -10.2018,-9.59262 -17.3999,-12.5965 3.8257,-0.96352 7.4672,-2.55047 10.9104,-4.70421 3.4431,-2.13957 6.4753,-4.78922 9.0966,-7.90648 2.6497,-3.14558 4.7751,-6.65956 6.3762,-10.68364 1.587,-4.00992 2.3806,-8.30321 2.3946,-12.93657 -0.014,-7.53807 -1.5869,-14.28267 -4.69,-20.29043 -3.1171,-6.00779 -7.3679,-11.08041 -12.724,-15.23201 -5.3702,-4.16577 -11.7747,-7.33969 -19.1994,-9.59262 -7.453,-2.19624 -15.487,-3.32978 -24.1303,-3.32978 -11.0238,0 -21.2965,1.17605 -30.8183,3.49981 -9.5218,2.32377 -16.904,5.05845 -22.1891,8.27488 l 6.9714,23.02511 c 5.7526,-3.01806 12.5115,-5.356 20.2761,-6.95713 7.7506,-1.62947 15.303,-2.42295 22.6568,-2.43712"
       style="fill:#ffffff;fill-opacity:1;fill-rule:nonzero;stroke:none;stroke-width:0.141693"
       id="path70" /><path
       d="m 549.39844,200.77733 c 9.12787,0.0142 16.47748,4.57669 22.08994,13.68754 5.58696,9.11086 8.39956,23.02512 8.40381,41.72859 0.0283,18.71765 -2.79703,32.63189 -8.36556,41.74276 -5.60254,9.1392 -12.93799,13.67337 -22.06159,13.68755 -9.1222,0 -16.48456,-4.53418 -22.08286,-13.64505 -5.58838,-9.1392 -8.39389,-23.03927 -8.4109,-41.74275 -0.0283,-18.73181 2.76869,-32.66024 8.36556,-41.7711 5.59263,-9.11085 12.95499,-13.68754 22.0616,-13.68754 z m 0.0738,136.2945 c 9.43958,-0.0141 17.95108,-1.85618 25.54583,-5.5402 7.58765,-3.71236 14.07435,-9.02584 19.44027,-15.9688 5.3305,-6.94296 9.46227,-15.43037 12.3443,-25.44807 2.85936,-9.98935 4.29189,-21.31062 4.28622,-33.90713 -0.0226,-12.66735 -1.43819,-23.98863 -4.32448,-33.97799 -2.91038,-9.98935 -7.01381,-18.49093 -12.36838,-25.43388 -5.38718,-6.95712 -11.85121,-12.27062 -19.45445,-15.92629 -7.59616,-3.66986 -16.11474,-5.51187 -25.54867,-5.51187 -9.43958,0.0142 -17.95816,1.84201 -25.54724,5.54019 -7.61034,3.65569 -14.07295,8.96918 -19.43319,15.95465 -5.34892,6.95712 -9.45093,15.43036 -12.33863,25.41972 -2.87212,10.00352 -4.30464,21.32479 -4.29897,33.96381 0.007,12.62485 1.43819,23.96029 4.33014,33.94965 2.90329,9.98936 7.00246,18.47676 12.36837,25.43389 5.35884,6.94295 11.85121,12.24228 19.44312,15.94046 7.59191,3.68402 16.11475,5.51186 25.55576,5.51186"
       style="fill:#ffffff;fill-opacity:1;fill-rule:nonzero;stroke:none;stroke-width:0.141693"
       id="path72" /><path
       d="m 858.02988,250.21401 c 0.006,4.94509 1.68474,9.3234 5.05136,13.07827 3.34962,3.75487 8.14452,5.61104 14.39459,5.61104 6.24588,0 11.02234,-1.88451 14.38182,-5.63937 3.36526,-3.76905 5.0273,-8.11902 5.0273,-13.0641 0,-4.9876 -1.68044,-9.3234 -5.03436,-13.07827 -3.37233,-3.76904 -8.1629,-5.65354 -14.4031,-5.65354 -6.23591,0 -11.03646,1.91284 -14.38467,5.65354 -3.38079,3.76904 -5.01452,8.11901 -5.03294,13.09243"
       style="fill:#ffffff;fill-opacity:1;fill-rule:nonzero;stroke:none;stroke-width:0.141693"
       id="path74" /><path
       d="m 1250.9856,255.37164 -103.1667,0.0283 0.014,22.08994 103.1666,-0.0567 z m -0.014,-44.15153 -103.1809,0.0567 v 22.07576 l 103.1809,-0.0567 v -22.07576"
       style="fill:#ffffff;fill-opacity:1;fill-rule:nonzero;stroke:none;stroke-width:0.141693"
       id="path76" /><path
       d="m 1527.4712,886.64233 h -0.4817 l -25.2072,-41.2752 -32.6462,0.0283 41.7855,59.9361 -39.5466,55.92623 h 32.391 l 22.9967,-37.18018 0.4959,-0.0139 22.5717,37.16606 h 32.377 l -38.8947,-55.89788 42.9046,-59.97859 -32.6178,0.0141 -26.1282,41.27524"
       style="fill:#ffffff;fill-opacity:1;fill-rule:nonzero;stroke:none;stroke-width:0.141693"
       id="path78" /><path
       d="m 1568.7605,605.08414 v -24.47038 l -69.5712,0.0425 v 24.48455 l 69.5712,-0.0567"
       style="fill:#ffffff;fill-opacity:1;fill-rule:nonzero;stroke:none;stroke-width:0.141693"
       id="path80" /><path
       d="m 1589.5044,233.6076 -38.1438,0.0283 -0.028,-38.65385 -29.2595,0.0283 0.014,38.62551 -38.1438,0.0142 0.028,24.48455 38.1296,-0.0283 0.043,38.63968 29.2597,-0.0141 -0.014,-38.63969 38.1297,-0.0141 -0.014,-24.47038"
       style="fill:#ffffff;fill-opacity:1;fill-rule:nonzero;stroke:none;stroke-width:0.141693"
       id="path82" /><path
       d="m 1591.8706,1231.1547 -118.9087,0.057 0.014,27.0775 118.9229,-0.071 -0.028,-27.0633"
       style="fill:#ffffff;fill-opacity:1;fill-rule:nonzero;stroke:none;stroke-width:0.141693"
       id="path84" /><path
       d="m 1553.0469,1302.3837 c 0,-9.3942 -7.6374,-17.0598 -17.0599,-17.0315 -9.4226,-0.014 -17.0741,7.6373 -17.0741,17.0599 0.014,9.4367 7.6656,17.1023 17.1025,17.0881 9.4084,0 17.0455,-7.6797 17.0315,-17.1165"
       style="fill:#ffffff;fill-opacity:1;fill-rule:nonzero;stroke:none;stroke-width:0.141693"
       id="path86" /><path
       d="m 1552.9902,1181.137 c 0.014,-9.4226 -7.6515,-17.074 -17.0883,-17.074 -9.4083,-0.014 -17.0598,7.6656 -17.0456,17.074 0,9.4509 7.6514,17.0882 17.0741,17.1025 9.4225,-0.014 17.0738,-7.694 17.0598,-17.1025"
       style="fill:#ffffff;fill-opacity:1;fill-rule:nonzero;stroke:none;stroke-width:0.141693"
       id="path88" /><path
       d="m 1608.1937,1787.7531 -397.7889,0.2126 -632.82079,-297.2437 1030.45389,-0.5383 c 28.211,-0.014 51.0944,18.8734 51.1086,42.182 l 0.1134,213.1913 c 0.014,23.28 -22.8551,42.182 -51.0662,42.1961"
       style="fill:#6ca2bc;fill-opacity:1;fill-rule:nonzero;stroke:none;stroke-width:0.141693"
       id="path90" /><path
       d="m 466.95579,1788.3624 c -28.19833,-0.014 -51.09308,-18.8736 -51.0945,-42.1536 l -0.12753,-213.2055 c -0.0128,-23.2944 22.86784,-42.2104 51.06758,-42.2104 l 110.78267,-0.071 632.82079,297.2436 -743.44901,0.3968"
       style="fill:#89b6c8;fill-opacity:1;fill-rule:nonzero;stroke:none;stroke-width:0.141693"
       id="path92" /><path
       d="m 1399.4657,1840.2788 c 0.028,-6.7163 -5.3985,-12.1857 -12.1005,-12.214 l -74.6722,-0.3118 c -6.7021,-0.028 -12.1715,5.3844 -12.1999,12.1006 l -0.255,60.7721 c -0.028,6.7021 5.3985,12.1715 12.1006,12.1998 l 74.658,0.3118 c 6.7163,0.043 12.1716,-5.3986 12.214,-12.1007 l 0.255,-60.7578"
       style="fill:#89b6c8;fill-opacity:1;fill-rule:nonzero;stroke:none;stroke-width:0.141693"
       id="path94" /><path
       d="m 1277.1139,1839.8112 c 0.028,-6.7163 -5.3701,-12.1857 -12.0865,-12.214 l -74.6721,-0.3117 c -6.7163,-0.043 -12.1716,5.3701 -12.1999,12.1005 l -0.255,60.7581 c -0.028,6.702 5.3701,12.1714 12.0865,12.1997 l 74.6721,0.3401 c 6.7164,0.014 12.1715,-5.3985 12.1999,-12.1149 l 0.255,-60.7578"
       style="fill:#89b6c8;fill-opacity:1;fill-rule:nonzero;stroke:none;stroke-width:0.141693"
       id="path96" /><path
       d="m 1523.2487,1840.7605 c 0.028,-6.7163 -5.3985,-12.1715 -12.1005,-12.214 l -74.6723,-0.3259 c -6.7021,-0.028 -12.1714,5.3985 -12.1997,12.1148 l -0.255,60.7579 c -0.043,6.7021 5.3843,12.1715 12.0864,12.214 l 74.6722,0.3117 c 6.7163,0.028 12.1714,-5.3985 12.1997,-12.1005 l 0.2692,-60.758"
       style="fill:#89b6c8;fill-opacity:1;fill-rule:nonzero;stroke:none;stroke-width:0.141693"
       id="path98" /><path
       d="m 1648.0661,1841.2422 c 0.028,-6.7304 -5.3985,-12.1856 -12.1006,-12.2139 l -74.6579,-0.3117 c -6.7164,-0.043 -12.1857,5.3701 -12.2141,12.1005 l -0.2691,60.758 c -0.014,6.7021 5.4126,12.1714 12.1147,12.214 l 74.658,0.3117 c 6.7164,0.043 12.1856,-5.3843 12.1998,-12.1007 l 0.2692,-60.7579"
       style="fill:#89b6c8;fill-opacity:1;fill-rule:nonzero;stroke:none;stroke-width:0.141693"
       id="path100" /></g></svg>
