<?xml version="1.0" encoding="UTF-8" standalone="no"?>
<svg
   version="1.1"
   id="svg2"
   xml:space="preserve"
   width="4400"
   height="3733.3333"
   viewBox="0 0 4400 3733.3333"
   sodipodi:docname="construction.svg"
   inkscape:version="1.1.1 (3bf5ae0d25, 2021-09-20)"
   xmlns:inkscape="http://www.inkscape.org/namespaces/inkscape"
   xmlns:sodipodi="http://sodipodi.sourceforge.net/DTD/sodipodi-0.dtd"
   xmlns="http://www.w3.org/2000/svg"
   xmlns:svg="http://www.w3.org/2000/svg"
   xmlns:rdf="http://www.w3.org/1999/02/22-rdf-syntax-ns#"
   xmlns:cc="http://creativecommons.org/ns#"
   xmlns:dc="http://purl.org/dc/elements/1.1/"><metadata
     id="metadata8"><rdf:RDF><cc:Work
         rdf:about=""><dc:format>image/svg+xml</dc:format><dc:type
           rdf:resource="http://purl.org/dc/dcmitype/StillImage" /></cc:Work></rdf:RDF></metadata><defs
     id="defs6"><clipPath
       clipPathUnits="userSpaceOnUse"
       id="clipPath106"><path
         d="M 33000,1308.2 H 56.3672 V 2281 H 33000 Z"
         clip-rule="evenodd"
         id="path104" /></clipPath></defs><sodipodi:namedview
     pagecolor="#ffffff"
     bordercolor="#666666"
     borderopacity="1"
     objecttolerance="10"
     gridtolerance="10"
     guidetolerance="10"
     inkscape:pageopacity="0"
     inkscape:pageshadow="2"
     inkscape:window-width="1920"
     inkscape:window-height="1017"
     id="namedview4"
     inkscape:pagecheckerboard="0"
     showgrid="false"
     inkscape:zoom="0.22285715"
     inkscape:cx="2200.9615"
     inkscape:cy="1868.9102"
     inkscape:window-x="-8"
     inkscape:window-y="-8"
     inkscape:window-maximized="1"
     inkscape:current-layer="g10" /><g
     id="g10"
     inkscape:groupmode="layer"
     inkscape:label="ink_ext_XXXXXX"
     transform="matrix(1.3333333,0,0,-1.3333333,0,3733.3333)"><path
       d="M 3300,139.7 H 5.63672 V 347.09 H 3300 V 139.7"
       style="fill:#f5cf17;fill-opacity:1;fill-rule:evenodd;stroke:none;stroke-width:0.1"
       id="path16" /><path
       d="m 1560.39,256.18 c 0,-7.38 -2.48,-13.25 -7.43,-17.61 -4.96,-4.37 -11.21,-6.55 -18.75,-6.55 -8.57,0 -15.47,2.9 -20.71,8.69 -5.24,5.79 -7.86,13.15 -7.86,22.08 0,8.6 2.64,15.87 7.92,21.81 5.28,5.93 12.16,8.9 20.65,8.9 6.68,0 12.58,-1.92 17.67,-5.75 5.67,-4.33 8.51,-9.83 8.51,-16.52 h -14.99 c -0.33,2.98 -1.54,5.24 -3.64,6.79 -2.1,1.55 -4.74,2.33 -7.92,2.33 -4.53,0 -7.89,-1.67 -10.09,-5.02 -2.2,-3.35 -3.31,-7.52 -3.31,-12.54 0,-4.86 1.04,-8.85 3.12,-11.99 2.41,-3.67 5.83,-5.5 10.28,-5.5 6.93,0 10.79,3.63 11.56,10.88 h 14.99"
       style="fill:#100f0d;fill-opacity:1;fill-rule:nonzero;stroke:none;stroke-width:0.1"
       id="path18" /><path
       d="m 1597.7,255.27 -6.25,20.65 -6.62,-20.67 z m 22.69,-22.03 h -15.53 l -3.49,10.52 h -20.06 l -3.61,-10.52 h -15.29 l 21.4,59.04 h 15.17 l 21.41,-59.04"
       style="fill:#100f0d;fill-opacity:1;fill-rule:nonzero;stroke:none;stroke-width:0.1"
       id="path20" /><path
       d="m 1674.28,257.65 c 0,-8.6 -2.01,-15.03 -6.02,-19.27 -4.02,-4.24 -10.33,-6.36 -18.93,-6.36 -16.6,0 -24.9,8.55 -24.9,25.63 v 34.63 h 14.93 v -35.61 c 0,-3.91 0.76,-6.79 2.29,-8.62 1.53,-1.84 4.09,-2.75 7.68,-2.75 6.68,0 10.03,3.79 10.03,11.37 v 35.61 h 14.92 v -34.63"
       style="fill:#100f0d;fill-opacity:1;fill-rule:nonzero;stroke:none;stroke-width:0.1"
       id="path22" /><path
       d="m 1729.64,279.12 h -17.13 v -45.88 h -15.04 v 45.88 h -16.89 v 13.16 h 49.06 v -13.16"
       style="fill:#100f0d;fill-opacity:1;fill-rule:nonzero;stroke:none;stroke-width:0.1"
       id="path24" /><path
       d="m 1751.11,233.24 h -14.92 v 59.04 h 14.92 v -59.04"
       style="fill:#100f0d;fill-opacity:1;fill-rule:nonzero;stroke:none;stroke-width:0.1"
       id="path26" /><path
       d="m 1800.84,262.79 c 0,4.81 -1,8.83 -3,12.05 -2.28,3.67 -5.71,5.51 -10.27,5.51 -4.37,0 -7.71,-1.72 -10.04,-5.15 -2.16,-3.25 -3.24,-7.39 -3.24,-12.41 0,-4.89 1,-8.89 3,-11.99 2.28,-3.67 5.71,-5.5 10.28,-5.5 2.32,0 4.32,0.44 5.99,1.31 1.67,0.88 3.1,2.23 4.28,4.07 2,2.97 3,7.01 3,12.11 z m 14.93,0 c 0,-8.81 -2.43,-16.06 -7.29,-21.77 -5.13,-6 -12.1,-9 -20.91,-9 -8.73,0 -15.63,2.88 -20.71,8.63 -5.08,5.74 -7.61,13.13 -7.61,22.14 0,8.77 2.46,16 7.4,21.71 5.26,6 12.23,9 20.92,9 4.36,0 8.26,-0.73 11.68,-2.18 3.43,-1.44 6.46,-3.68 9.11,-6.69 4.94,-5.67 7.41,-12.96 7.41,-21.84"
       style="fill:#100f0d;fill-opacity:1;fill-rule:nonzero;stroke:none;stroke-width:0.1"
       id="path28" /><path
       d="m 1873.14,233.24 h -15.41 l -19.82,36.83 -0.25,-36.83 h -13.88 v 59.04 h 15.3 l 19.87,-36.4 0.12,36.4 h 14.07 v -59.04"
       style="fill:#100f0d;fill-opacity:1;fill-rule:nonzero;stroke:none;stroke-width:0.1"
       id="path30" /><path
       d="m 2235.86,257.65 c 0,-8.6 -2.01,-15.03 -6.02,-19.27 -4.02,-4.24 -10.33,-6.36 -18.93,-6.36 -16.6,0 -24.9,8.55 -24.9,25.63 v 34.63 h 14.92 v -35.61 c 0,-3.91 0.77,-6.79 2.3,-8.62 1.53,-1.84 4.09,-2.75 7.68,-2.75 6.68,0 10.03,3.79 10.03,11.37 v 35.61 h 14.92 v -34.63"
       style="fill:#100f0d;fill-opacity:1;fill-rule:nonzero;stroke:none;stroke-width:0.1"
       id="path32" /><path
       d="m 2295.01,233.24 h -15.41 l -19.82,36.83 -0.25,-36.83 h -13.88 v 59.04 h 15.3 l 19.87,-36.4 0.12,36.4 h 14.07 v -59.04"
       style="fill:#100f0d;fill-opacity:1;fill-rule:nonzero;stroke:none;stroke-width:0.1"
       id="path34" /><path
       d="m 2342.85,263.04 c 0,10.72 -5.26,16.08 -15.79,16.08 h -6.97 v -32.6 h 6.97 c 5.59,0 9.62,1.25 12.09,3.76 2.46,2.51 3.7,6.76 3.7,12.76 z m 15.04,0 c 0,-9.51 -2.5,-16.89 -7.52,-22.15 -2.45,-2.53 -5.38,-4.43 -8.81,-5.72 -3.42,-1.28 -7.34,-1.93 -11.74,-1.93 h -24.65 v 59.04 h 24.65 c 8.64,0 15.48,-2.59 20.52,-7.74 5.04,-5.17 7.55,-12.33 7.55,-21.5"
       style="fill:#100f0d;fill-opacity:1;fill-rule:nonzero;stroke:none;stroke-width:0.1"
       id="path36" /><path
       d="m 2412.39,233.24 h -46.36 v 59.04 h 45.57 v -12.3 h -30.65 v -10.4 h 28.02 v -11.93 h -28.02 v -11.13 h 31.44 v -13.28"
       style="fill:#100f0d;fill-opacity:1;fill-rule:nonzero;stroke:none;stroke-width:0.1"
       id="path38" /><path
       d="m 2455.21,273.56 c 0,2.03 -0.71,3.61 -2.14,4.73 -1.43,1.12 -3.22,1.69 -5.38,1.69 h -11.87 v -13.27 h 12.48 c 4.61,0 6.91,2.28 6.91,6.85 z m 16.7,-40.32 h -14.68 c -0.21,0.33 -0.41,0.79 -0.61,1.38 -0.21,0.6 -0.47,1.56 -0.8,2.91 -0.24,1.95 -0.36,3.67 -0.36,5.14 0,3.46 -0.49,6.21 -1.47,8.25 -1.31,2.57 -3.61,3.86 -6.91,3.86 h -11.26 v -21.54 h -14.92 v 59.04 h 29.17 c 5.43,0 10.01,-1.27 13.76,-3.8 4.21,-2.9 6.31,-7.15 6.31,-12.78 0,-3.35 -0.78,-6.34 -2.33,-8.97 -1.55,-2.63 -3.75,-4.59 -6.6,-5.9 2.61,-0.77 4.66,-2.67 6.17,-5.69 0.49,-1.14 0.89,-2.31 1.2,-3.52 0.3,-1.2 0.58,-2.62 0.82,-4.24 l 0.74,-8.51 c 0.24,-2.89 0.83,-4.77 1.77,-5.63"
       style="fill:#100f0d;fill-opacity:1;fill-rule:nonzero;stroke:none;stroke-width:0.1"
       id="path40" /><path
       d="m 2566.9,256.18 c 0,-7.38 -2.47,-13.25 -7.43,-17.61 -4.95,-4.37 -11.2,-6.55 -18.75,-6.55 -8.56,0 -15.46,2.9 -20.7,8.69 -5.24,5.79 -7.86,13.15 -7.86,22.08 0,8.6 2.64,15.87 7.92,21.81 5.28,5.93 12.16,8.9 20.64,8.9 6.69,0 12.58,-1.92 17.68,-5.75 5.67,-4.33 8.5,-9.83 8.5,-16.52 h -14.98 c -0.33,2.98 -1.54,5.24 -3.64,6.79 -2.1,1.55 -4.74,2.33 -7.92,2.33 -4.53,0 -7.89,-1.67 -10.1,-5.02 -2.2,-3.35 -3.3,-7.52 -3.3,-12.54 0,-4.86 1.04,-8.85 3.12,-11.99 2.41,-3.67 5.83,-5.5 10.28,-5.5 6.93,0 10.78,3.63 11.56,10.88 h 14.98"
       style="fill:#100f0d;fill-opacity:1;fill-rule:nonzero;stroke:none;stroke-width:0.1"
       id="path42" /><path
       d="m 2614.13,262.79 c 0,4.81 -1,8.83 -3,12.05 -2.29,3.67 -5.71,5.51 -10.28,5.51 -4.36,0 -7.7,-1.72 -10.03,-5.15 -2.16,-3.25 -3.24,-7.39 -3.24,-12.41 0,-4.89 1,-8.89 3,-11.99 2.28,-3.67 5.7,-5.5 10.27,-5.5 2.33,0 4.33,0.44 6,1.31 1.67,0.88 3.1,2.23 4.28,4.07 2,2.97 3,7.01 3,12.11 z m 14.92,0 c 0,-8.81 -2.42,-16.06 -7.28,-21.77 -5.14,-6 -12.11,-9 -20.92,-9 -8.72,0 -15.63,2.88 -20.7,8.63 -5.08,5.74 -7.62,13.13 -7.62,22.14 0,8.77 2.47,16 7.4,21.71 5.26,6 12.24,9 20.92,9 4.36,0 8.26,-0.73 11.69,-2.18 3.42,-1.44 6.46,-3.68 9.11,-6.69 4.93,-5.67 7.4,-12.96 7.4,-21.84"
       style="fill:#100f0d;fill-opacity:1;fill-rule:nonzero;stroke:none;stroke-width:0.1"
       id="path44" /><path
       d="m 2686.43,233.24 h -15.41 l -19.82,36.83 -0.25,-36.83 h -13.89 v 59.04 h 15.31 l 19.87,-36.4 0.12,36.4 h 14.07 v -59.04"
       style="fill:#100f0d;fill-opacity:1;fill-rule:nonzero;stroke:none;stroke-width:0.1"
       id="path46" /><path
       d="m 2743.07,251.78 c 0,-6.93 -2.59,-12.11 -7.77,-15.54 -4.36,-2.81 -10.09,-4.22 -17.18,-4.22 -7.06,0 -12.81,1.61 -17.26,4.83 -5.01,3.67 -7.52,9.08 -7.52,16.22 h 14.86 c 0,-3.23 0.94,-5.57 2.82,-7.01 1.87,-1.44 4.55,-2.17 8.01,-2.17 1.35,0 2.54,0.1 3.58,0.3 1.04,0.21 2.01,0.57 2.91,1.11 1.75,0.85 2.63,2.38 2.63,4.58 0,2.53 -2.51,4.63 -7.53,6.3 -1.71,0.41 -3.28,0.81 -4.71,1.2 -1.43,0.39 -2.81,0.78 -4.16,1.19 -4.93,1.43 -8.75,3.18 -11.44,5.26 -1.75,1.47 -3.09,3.17 -4,5.11 -0.92,1.93 -1.38,4.14 -1.38,6.63 0,5.83 2.55,10.44 7.65,13.83 4.24,2.73 9.46,4.1 15.66,4.1 3.26,0 6.19,-0.36 8.81,-1.08 2.6,-0.71 4.93,-1.82 6.97,-3.33 4.85,-3.42 7.28,-8.3 7.28,-14.62 h -15.05 c 0,2.45 -0.88,4.24 -2.63,5.39 -0.86,0.57 -1.84,1.01 -2.94,1.31 -1.1,0.31 -2.28,0.46 -3.55,0.46 -1.87,0 -3.55,-0.38 -5.04,-1.13 -1.49,-0.75 -2.23,-2.05 -2.23,-3.88 0,-1.52 1,-2.78 2.99,-3.79 l 13.52,-3.98 c 5.02,-1.43 8.83,-3.22 11.44,-5.39 3.51,-2.93 5.26,-6.83 5.26,-11.68"
       style="fill:#100f0d;fill-opacity:1;fill-rule:nonzero;stroke:none;stroke-width:0.1"
       id="path48" /><path
       d="m 2795.49,279.12 h -17.12 v -45.88 h -15.05 v 45.88 h -16.89 v 13.16 h 49.06 v -13.16"
       style="fill:#100f0d;fill-opacity:1;fill-rule:nonzero;stroke:none;stroke-width:0.1"
       id="path50" /><path
       d="m 2836.35,273.56 c 0,2.03 -0.71,3.61 -2.14,4.73 -1.42,1.12 -3.22,1.69 -5.38,1.69 h -11.87 v -13.27 h 12.48 c 4.61,0 6.91,2.28 6.91,6.85 z m 16.7,-40.32 h -14.68 c -0.2,0.33 -0.41,0.79 -0.61,1.38 -0.21,0.6 -0.47,1.56 -0.79,2.91 -0.25,1.95 -0.37,3.67 -0.37,5.14 0,3.46 -0.49,6.21 -1.47,8.25 -1.31,2.57 -3.61,3.86 -6.91,3.86 h -11.26 v -21.54 h -14.92 v 59.04 h 29.17 c 5.43,0 10.02,-1.27 13.77,-3.8 4.2,-2.9 6.3,-7.15 6.3,-12.78 0,-3.35 -0.78,-6.34 -2.32,-8.97 -1.56,-2.63 -3.76,-4.59 -6.61,-5.9 2.61,-0.77 4.67,-2.67 6.18,-5.69 0.48,-1.14 0.88,-2.31 1.19,-3.52 0.3,-1.2 0.58,-2.62 0.82,-4.24 l 0.74,-8.51 c 0.24,-2.89 0.84,-4.77 1.77,-5.63"
       style="fill:#100f0d;fill-opacity:1;fill-rule:nonzero;stroke:none;stroke-width:0.1"
       id="path52" /><path
       d="m 2909.51,257.65 c 0,-8.6 -2.01,-15.03 -6.02,-19.27 -4.02,-4.24 -10.33,-6.36 -18.94,-6.36 -16.59,0 -24.89,8.55 -24.89,25.63 v 34.63 h 14.92 v -35.61 c 0,-3.91 0.77,-6.79 2.3,-8.62 1.53,-1.84 4.09,-2.75 7.67,-2.75 6.69,0 10.04,3.79 10.04,11.37 v 35.61 h 14.92 v -34.63"
       style="fill:#100f0d;fill-opacity:1;fill-rule:nonzero;stroke:none;stroke-width:0.1"
       id="path54" /><path
       d="m 2972.39,256.18 c 0,-7.38 -2.48,-13.25 -7.43,-17.61 -4.95,-4.37 -11.21,-6.55 -18.75,-6.55 -8.56,0 -15.46,2.9 -20.71,8.69 -5.24,5.79 -7.86,13.15 -7.86,22.08 0,8.6 2.64,15.87 7.93,21.81 5.28,5.93 12.16,8.9 20.64,8.9 6.69,0 12.58,-1.92 17.68,-5.75 5.66,-4.33 8.5,-9.83 8.5,-16.52 h -14.99 c -0.32,2.98 -1.54,5.24 -3.63,6.79 -2.11,1.55 -4.75,2.33 -7.93,2.33 -4.52,0 -7.89,-1.67 -10.09,-5.02 -2.2,-3.35 -3.3,-7.52 -3.3,-12.54 0,-4.86 1.04,-8.85 3.12,-11.99 2.4,-3.67 5.83,-5.5 10.27,-5.5 6.94,0 10.79,3.63 11.56,10.88 h 14.99"
       style="fill:#100f0d;fill-opacity:1;fill-rule:nonzero;stroke:none;stroke-width:0.1"
       id="path56" /><path
       d="m 3025.73,279.12 h -17.13 v -45.88 h -15.04 v 45.88 h -16.89 v 13.16 h 49.06 v -13.16"
       style="fill:#100f0d;fill-opacity:1;fill-rule:nonzero;stroke:none;stroke-width:0.1"
       id="path58" /><path
       d="m 3047.2,233.24 h -14.93 v 59.04 h 14.93 v -59.04"
       style="fill:#100f0d;fill-opacity:1;fill-rule:nonzero;stroke:none;stroke-width:0.1"
       id="path60" /><path
       d="m 3096.93,262.79 c 0,4.81 -1,8.83 -3,12.05 -2.28,3.67 -5.71,5.51 -10.27,5.51 -4.37,0 -7.71,-1.72 -10.03,-5.15 -2.17,-3.25 -3.25,-7.39 -3.25,-12.41 0,-4.89 1,-8.89 3,-11.99 2.28,-3.67 5.71,-5.5 10.28,-5.5 2.32,0 4.32,0.44 5.99,1.31 1.67,0.88 3.1,2.23 4.28,4.07 2,2.97 3,7.01 3,12.11 z m 14.93,0 c 0,-8.81 -2.43,-16.06 -7.28,-21.77 -5.14,-6 -12.12,-9 -20.92,-9 -8.73,0 -15.63,2.88 -20.71,8.63 -5.08,5.74 -7.61,13.13 -7.61,22.14 0,8.77 2.46,16 7.4,21.71 5.26,6 12.23,9 20.92,9 4.36,0 8.25,-0.73 11.68,-2.18 3.43,-1.44 6.46,-3.68 9.11,-6.69 4.94,-5.67 7.41,-12.96 7.41,-21.84"
       style="fill:#100f0d;fill-opacity:1;fill-rule:nonzero;stroke:none;stroke-width:0.1"
       id="path62" /><path
       d="m 3169.23,233.24 h -15.41 l -19.82,36.83 -0.25,-36.83 h -13.88 v 59.04 h 15.3 l 19.87,-36.4 0.12,36.4 h 14.07 v -59.04"
       style="fill:#100f0d;fill-opacity:1;fill-rule:nonzero;stroke:none;stroke-width:0.1"
       id="path64" /><path
       d="m 260.809,257.65 c 0,-8.6 -2.008,-15.03 -6.024,-19.27 -4.016,-4.24 -10.329,-6.36 -18.931,-6.36 -16.598,0 -24.896,8.55 -24.896,25.63 v 34.63 h 14.926 v -35.61 c 0,-3.91 0.764,-6.79 2.295,-8.62 1.527,-1.84 4.087,-2.75 7.675,-2.75 6.687,0 10.033,3.79 10.033,11.37 v 35.61 h 14.922 v -34.63"
       style="fill:#100f0d;fill-opacity:1;fill-rule:nonzero;stroke:none;stroke-width:0.1"
       id="path66" /><path
       d="m 319.959,233.24 h -15.411 l -19.821,36.83 -0.245,-36.83 h -13.886 v 59.04 h 15.306 l 19.867,-36.4 0.121,36.4 h 14.069 v -59.04"
       style="fill:#100f0d;fill-opacity:1;fill-rule:nonzero;stroke:none;stroke-width:0.1"
       id="path68" /><path
       d="m 367.795,263.04 c 0,10.72 -5.26,16.08 -15.782,16.08 h -6.971 v -32.6 h 6.971 c 5.585,0 9.613,1.25 12.081,3.76 2.467,2.51 3.701,6.76 3.701,12.76 z m 15.049,0 c 0,-9.51 -2.509,-16.89 -7.526,-22.15 -2.446,-2.53 -5.382,-4.43 -8.809,-5.72 -3.424,-1.28 -7.339,-1.93 -11.742,-1.93 h -24.652 v 59.04 h 24.652 c 8.643,0 15.484,-2.59 20.52,-7.74 5.039,-5.17 7.557,-12.33 7.557,-21.5"
       style="fill:#100f0d;fill-opacity:1;fill-rule:nonzero;stroke:none;stroke-width:0.1"
       id="path70" /><path
       d="m 437.342,233.24 h -46.366 v 59.04 h 45.569 v -12.3 h -30.643 v -10.4 h 28.012 v -11.93 h -28.012 v -11.13 h 31.44 v -13.28"
       style="fill:#100f0d;fill-opacity:1;fill-rule:nonzero;stroke:none;stroke-width:0.1"
       id="path72" /><path
       d="m 480.16,273.56 c 0,2.03 -0.713,3.61 -2.141,4.73 -1.426,1.12 -3.222,1.69 -5.383,1.69 h -11.865 v -13.27 h 12.476 c 4.607,0 6.913,2.28 6.913,6.85 z m 16.699,-40.32 H 482.18 c -0.207,0.33 -0.409,0.79 -0.614,1.38 -0.204,0.6 -0.468,1.56 -0.795,2.91 -0.246,1.95 -0.366,3.67 -0.366,5.14 0,3.46 -0.489,6.21 -1.468,8.25 -1.307,2.57 -3.609,3.86 -6.913,3.86 h -11.253 v -21.54 h -14.927 v 59.04 h 29.178 c 5.423,0 10.009,-1.27 13.763,-3.8 4.199,-2.9 6.299,-7.15 6.299,-12.78 0,-3.35 -0.773,-6.34 -2.323,-8.97 -1.55,-2.63 -3.753,-4.59 -6.607,-5.9 2.61,-0.77 4.669,-2.67 6.179,-5.69 0.489,-1.14 0.888,-2.31 1.194,-3.52 0.304,-1.2 0.579,-2.62 0.824,-4.24 l 0.733,-8.51 c 0.247,-2.89 0.837,-4.77 1.775,-5.63"
       style="fill:#100f0d;fill-opacity:1;fill-rule:nonzero;stroke:none;stroke-width:0.1"
       id="path74" /><path
       d="m 591.852,256.18 c 0,-7.38 -2.476,-13.25 -7.43,-17.61 -4.955,-4.37 -11.204,-6.55 -18.75,-6.55 -8.562,0 -15.465,2.9 -20.704,8.69 -5.241,5.79 -7.86,13.15 -7.86,22.08 0,8.6 2.639,15.87 7.922,21.81 5.281,5.93 12.161,8.9 20.642,8.9 6.688,0 12.58,-1.92 17.678,-5.75 5.669,-4.33 8.502,-9.83 8.502,-16.52 h -14.987 c -0.325,2.98 -1.538,5.24 -3.638,6.79 -2.102,1.55 -4.742,2.33 -7.922,2.33 -4.524,0 -7.889,-1.67 -10.092,-5.02 -2.201,-3.35 -3.303,-7.52 -3.303,-12.54 0,-4.86 1.041,-8.85 3.12,-11.99 2.406,-3.67 5.829,-5.5 10.275,-5.5 6.932,0 10.786,3.63 11.56,10.88 h 14.987"
       style="fill:#100f0d;fill-opacity:1;fill-rule:nonzero;stroke:none;stroke-width:0.1"
       id="path76" /><path
       d="m 639.077,262.79 c 0,4.81 -1.002,8.83 -2.998,12.05 -2.286,3.67 -5.711,5.51 -10.278,5.51 -4.364,0 -7.706,-1.72 -10.031,-5.15 -2.163,-3.25 -3.242,-7.39 -3.242,-12.41 0,-4.89 0.999,-8.89 2.995,-11.99 2.286,-3.67 5.712,-5.5 10.278,-5.5 2.325,0 4.322,0.44 5.996,1.31 1.67,0.88 3.097,2.23 4.282,4.07 1.996,2.97 2.998,7.01 2.998,12.11 z m 14.925,0 c 0,-8.81 -2.428,-16.06 -7.279,-21.77 -5.14,-6 -12.112,-9 -20.922,-9 -8.726,0 -15.628,2.88 -20.704,8.63 -5.078,5.74 -7.614,13.13 -7.614,22.14 0,8.77 2.465,16 7.4,21.71 5.26,6 12.234,9 20.918,9 4.364,0 8.258,-0.73 11.682,-2.18 3.43,-1.44 6.466,-3.68 9.116,-6.69 4.935,-5.67 7.403,-12.96 7.403,-21.84"
       style="fill:#100f0d;fill-opacity:1;fill-rule:nonzero;stroke:none;stroke-width:0.1"
       id="path78" /><path
       d="m 711.376,233.24 h -15.413 l -19.817,36.83 -0.247,-36.83 h -13.887 v 59.04 h 15.306 l 19.868,-36.4 0.12,36.4 h 14.07 v -59.04"
       style="fill:#100f0d;fill-opacity:1;fill-rule:nonzero;stroke:none;stroke-width:0.1"
       id="path80" /><path
       d="m 768.018,251.78 c 0,-6.93 -2.589,-12.11 -7.767,-15.54 -4.366,-2.81 -10.092,-4.22 -17.186,-4.22 -7.057,0 -12.809,1.61 -17.252,4.83 -5.015,3.67 -7.524,9.08 -7.524,16.22 h 14.865 c 0,-3.23 0.938,-5.57 2.813,-7.01 1.876,-1.44 4.547,-2.17 8.013,-2.17 1.347,0 2.541,0.1 3.577,0.3 1.041,0.21 2.01,0.57 2.908,1.11 1.75,0.85 2.631,2.38 2.631,4.58 0,2.53 -2.509,4.63 -7.524,6.3 -1.714,0.41 -3.285,0.81 -4.71,1.2 -1.429,0.39 -2.816,0.78 -4.16,1.19 -4.935,1.43 -8.748,3.18 -11.439,5.26 -1.752,1.47 -3.09,3.17 -4.007,5.11 -0.919,1.93 -1.377,4.14 -1.377,6.63 0,5.83 2.549,10.44 7.648,13.83 4.24,2.73 9.458,4.1 15.658,4.1 3.262,0 6.198,-0.36 8.809,-1.08 2.61,-0.71 4.933,-1.82 6.973,-3.33 4.854,-3.42 7.278,-8.3 7.278,-14.62 h -15.046 c 0,2.45 -0.879,4.24 -2.632,5.39 -0.857,0.57 -1.834,1.01 -2.934,1.31 -1.101,0.31 -2.285,0.46 -3.549,0.46 -1.874,0 -3.557,-0.38 -5.047,-1.13 -1.489,-0.75 -2.23,-2.05 -2.23,-3.88 0,-1.52 0.997,-2.78 2.996,-3.79 l 13.518,-3.98 c 5.013,-1.43 8.827,-3.22 11.437,-5.39 3.508,-2.93 5.26,-6.83 5.26,-11.68"
       style="fill:#100f0d;fill-opacity:1;fill-rule:nonzero;stroke:none;stroke-width:0.1"
       id="path82" /><path
       d="m 820.441,279.12 h -17.127 v -45.88 h -15.046 v 45.88 h -16.885 v 13.16 h 49.058 v -13.16"
       style="fill:#100f0d;fill-opacity:1;fill-rule:nonzero;stroke:none;stroke-width:0.1"
       id="path84" /><path
       d="m 861.301,273.56 c 0,2.03 -0.713,3.61 -2.14,4.73 -1.427,1.12 -3.223,1.69 -5.384,1.69 h -11.865 v -13.27 h 12.478 c 4.607,0 6.911,2.28 6.911,6.85 z M 878,233.24 h -14.679 c -0.207,0.33 -0.409,0.79 -0.613,1.38 -0.205,0.6 -0.469,1.56 -0.793,2.91 -0.245,1.95 -0.367,3.67 -0.367,5.14 0,3.46 -0.489,6.21 -1.47,8.25 -1.307,2.57 -3.609,3.86 -6.912,3.86 h -11.254 v -21.54 h -14.925 v 59.04 h 29.177 c 5.423,0 10.011,-1.27 13.762,-3.8 4.201,-2.9 6.301,-7.15 6.301,-12.78 0,-3.35 -0.773,-6.34 -2.325,-8.97 -1.549,-2.63 -3.751,-4.59 -6.605,-5.9 2.608,-0.77 4.668,-2.67 6.177,-5.69 0.489,-1.14 0.889,-2.31 1.194,-3.52 0.304,-1.2 0.581,-2.62 0.824,-4.24 l 0.735,-8.51 c 0.245,-2.89 0.837,-4.77 1.773,-5.63"
       style="fill:#100f0d;fill-opacity:1;fill-rule:nonzero;stroke:none;stroke-width:0.1"
       id="path86" /><path
       d="m 934.459,257.65 c 0,-8.6 -2.008,-15.03 -6.024,-19.27 -4.017,-4.24 -10.328,-6.36 -18.933,-6.36 -16.597,0 -24.895,8.55 -24.895,25.63 v 34.63 h 14.927 v -35.61 c 0,-3.91 0.764,-6.79 2.292,-8.62 1.531,-1.84 4.09,-2.75 7.676,-2.75 6.687,0 10.031,3.79 10.031,11.37 v 35.61 h 14.926 v -34.63"
       style="fill:#100f0d;fill-opacity:1;fill-rule:nonzero;stroke:none;stroke-width:0.1"
       id="path88" /><path
       d="m 997.339,256.18 c 0,-7.38 -2.48,-13.25 -7.43,-17.61 -4.955,-4.37 -11.207,-6.55 -18.75,-6.55 -8.564,0 -15.465,2.9 -20.706,8.69 -5.241,5.79 -7.86,13.15 -7.86,22.08 0,8.6 2.64,15.87 7.921,21.81 5.283,5.93 12.164,8.9 20.645,8.9 6.686,0 12.58,-1.92 17.676,-5.75 5.668,-4.33 8.504,-9.83 8.504,-16.52 h -14.987 c -0.329,2.98 -1.54,5.24 -3.638,6.79 -2.102,1.55 -4.742,2.33 -7.922,2.33 -4.526,0 -7.891,-1.67 -10.094,-5.02 -2.201,-3.35 -3.303,-7.52 -3.303,-12.54 0,-4.86 1.041,-8.85 3.12,-11.99 2.405,-3.67 5.831,-5.5 10.277,-5.5 6.932,0 10.786,3.63 11.56,10.88 h 14.987"
       style="fill:#100f0d;fill-opacity:1;fill-rule:nonzero;stroke:none;stroke-width:0.1"
       id="path90" /><path
       d="m 1050.68,279.12 h -17.13 v -45.88 h -15.04 v 45.88 h -16.89 v 13.16 h 49.06 v -13.16"
       style="fill:#100f0d;fill-opacity:1;fill-rule:nonzero;stroke:none;stroke-width:0.1"
       id="path92" /><path
       d="m 1072.15,233.24 h -14.93 v 59.04 h 14.93 v -59.04"
       style="fill:#100f0d;fill-opacity:1;fill-rule:nonzero;stroke:none;stroke-width:0.1"
       id="path94" /><path
       d="m 1121.88,262.79 c 0,4.81 -1,8.83 -3,12.05 -2.28,3.67 -5.71,5.51 -10.27,5.51 -4.37,0 -7.71,-1.72 -10.04,-5.15 -2.16,-3.25 -3.24,-7.39 -3.24,-12.41 0,-4.89 1,-8.89 3,-11.99 2.28,-3.67 5.71,-5.5 10.28,-5.5 2.32,0 4.32,0.44 5.99,1.31 1.67,0.88 3.1,2.23 4.28,4.07 2,2.97 3,7.01 3,12.11 z m 14.92,0 c 0,-8.81 -2.42,-16.06 -7.27,-21.77 -5.14,-6 -12.12,-9 -20.92,-9 -8.73,0 -15.63,2.88 -20.71,8.63 -5.08,5.74 -7.61,13.13 -7.61,22.14 0,8.77 2.46,16 7.4,21.71 5.26,6 12.23,9 20.92,9 4.36,0 8.25,-0.73 11.68,-2.18 3.42,-1.44 6.46,-3.68 9.11,-6.69 4.94,-5.67 7.4,-12.96 7.4,-21.84"
       style="fill:#100f0d;fill-opacity:1;fill-rule:nonzero;stroke:none;stroke-width:0.1"
       id="path96" /><path
       d="m 1194.18,233.24 h -15.41 l -19.82,36.83 -0.25,-36.83 h -13.88 v 59.04 h 15.3 l 19.87,-36.4 0.12,36.4 h 14.07 v -59.04"
       style="fill:#100f0d;fill-opacity:1;fill-rule:nonzero;stroke:none;stroke-width:0.1"
       id="path98" /><g
       id="g100"
       transform="scale(0.1)"><g
         id="g102"
         clip-path="url(#clipPath106)"><path
           d="M -86.6094,1397.4 H -340.957 L 89.4766,2001.9 H 343.828 L -86.6094,1397.4"
           style="fill:#12100e;fill-opacity:1;fill-rule:evenodd;stroke:none"
           id="path108" /><path
           d="M 382.961,1397.4 H 128.609 l 430.438,604.5 H 813.395 L 382.961,1397.4"
           style="fill:#12100e;fill-opacity:1;fill-rule:evenodd;stroke:none"
           id="path110" /><path
           d="M 852.523,1397.4 H 598.18 l 430.43,604.5 h 254.35 L 852.523,1397.4"
           style="fill:#12100e;fill-opacity:1;fill-rule:evenodd;stroke:none"
           id="path112" /><path
           d="m 1322.09,1397.4 h -254.35 l 430.44,604.5 h 254.35 l -430.44,-604.5"
           style="fill:#12100e;fill-opacity:1;fill-rule:evenodd;stroke:none"
           id="path114" /><path
           d="m 1791.66,1397.4 h -254.35 l 430.44,604.5 h 254.34 l -430.43,-604.5"
           style="fill:#12100e;fill-opacity:1;fill-rule:evenodd;stroke:none"
           id="path116" /><path
           d="m 2261.23,1397.4 h -254.35 l 430.43,604.5 h 254.36 l -430.44,-604.5"
           style="fill:#12100e;fill-opacity:1;fill-rule:evenodd;stroke:none"
           id="path118" /><path
           d="m 2730.8,1397.4 h -254.35 l 430.43,604.5 h 254.35 L 2730.8,1397.4"
           style="fill:#12100e;fill-opacity:1;fill-rule:evenodd;stroke:none"
           id="path120" /><path
           d="m 3200.36,1397.4 h -254.35 l 430.44,604.5 h 254.35 l -430.44,-604.5"
           style="fill:#12100e;fill-opacity:1;fill-rule:evenodd;stroke:none"
           id="path122" /><path
           d="m 3669.93,1397.4 h -254.35 l 430.44,604.5 h 254.34 l -430.43,-604.5"
           style="fill:#12100e;fill-opacity:1;fill-rule:evenodd;stroke:none"
           id="path124" /><path
           d="m 4139.49,1397.4 h -254.34 l 430.43,604.5 h 254.35 l -430.44,-604.5"
           style="fill:#12100e;fill-opacity:1;fill-rule:evenodd;stroke:none"
           id="path126" /><path
           d="m 4609.06,1397.4 h -254.35 l 430.44,604.5 h 254.35 l -430.44,-604.5"
           style="fill:#12100e;fill-opacity:1;fill-rule:evenodd;stroke:none"
           id="path128" /><path
           d="m 5078.63,1397.4 h -254.35 l 430.44,604.5 h 254.34 l -430.43,-604.5"
           style="fill:#12100e;fill-opacity:1;fill-rule:evenodd;stroke:none"
           id="path130" /><path
           d="m 5548.19,1397.4 h -254.34 l 430.43,604.5 h 254.35 l -430.44,-604.5"
           style="fill:#12100e;fill-opacity:1;fill-rule:evenodd;stroke:none"
           id="path132" /><path
           d="m 6017.76,1397.4 h -254.35 l 430.44,604.5 h 254.35 l -430.44,-604.5"
           style="fill:#12100e;fill-opacity:1;fill-rule:evenodd;stroke:none"
           id="path134" /><path
           d="m 6487.33,1397.4 h -254.35 l 430.44,604.5 h 254.34 l -430.43,-604.5"
           style="fill:#12100e;fill-opacity:1;fill-rule:evenodd;stroke:none"
           id="path136" /><path
           d="m 6956.89,1397.4 h -254.34 l 430.43,604.5 h 254.35 l -430.44,-604.5"
           style="fill:#12100e;fill-opacity:1;fill-rule:evenodd;stroke:none"
           id="path138" /><path
           d="m 7426.46,1397.4 h -254.35 l 430.44,604.5 h 254.35 l -430.44,-604.5"
           style="fill:#12100e;fill-opacity:1;fill-rule:evenodd;stroke:none"
           id="path140" /><path
           d="m 7896.03,1397.4 h -254.35 l 430.44,604.5 h 254.34 l -430.43,-604.5"
           style="fill:#12100e;fill-opacity:1;fill-rule:evenodd;stroke:none"
           id="path142" /><path
           d="m 8365.6,1397.4 h -254.35 l 430.43,604.5 h 254.35 L 8365.6,1397.4"
           style="fill:#12100e;fill-opacity:1;fill-rule:evenodd;stroke:none"
           id="path144" /><path
           d="m 8835.17,1397.4 h -254.35 l 430.43,604.5 h 254.35 l -430.43,-604.5"
           style="fill:#12100e;fill-opacity:1;fill-rule:evenodd;stroke:none"
           id="path146" /><path
           d="m 9304.73,1397.4 h -254.35 l 430.44,604.5 h 254.35 l -430.44,-604.5"
           style="fill:#12100e;fill-opacity:1;fill-rule:evenodd;stroke:none"
           id="path148" /><path
           d="m 9774.3,1397.4 h -254.35 l 430.44,604.5 h 254.31 l -430.4,-604.5"
           style="fill:#12100e;fill-opacity:1;fill-rule:evenodd;stroke:none"
           id="path150" /><path
           d="m 10243.9,1397.4 h -254.38 l 430.48,604.5 h 254.3 l -430.4,-604.5"
           style="fill:#12100e;fill-opacity:1;fill-rule:evenodd;stroke:none"
           id="path152" /><path
           d="m 10713.4,1397.4 h -254.3 l 430.4,604.5 h 254.4 l -430.5,-604.5"
           style="fill:#12100e;fill-opacity:1;fill-rule:evenodd;stroke:none"
           id="path154" /><path
           d="m 11183,1397.4 h -254.4 l 430.5,604.5 h 254.3 L 11183,1397.4"
           style="fill:#12100e;fill-opacity:1;fill-rule:evenodd;stroke:none"
           id="path156" /><path
           d="m 11652.6,1397.4 h -254.4 l 430.5,604.5 h 254.3 l -430.4,-604.5"
           style="fill:#12100e;fill-opacity:1;fill-rule:evenodd;stroke:none"
           id="path158" /><path
           d="m 12122.1,1397.4 h -254.3 l 430.4,604.5 h 254.4 l -430.5,-604.5"
           style="fill:#12100e;fill-opacity:1;fill-rule:evenodd;stroke:none"
           id="path160" /><path
           d="m 12591.7,1397.4 h -254.4 l 430.5,604.5 h 254.3 l -430.4,-604.5"
           style="fill:#12100e;fill-opacity:1;fill-rule:evenodd;stroke:none"
           id="path162" /><path
           d="m 13061.3,1397.4 h -254.4 l 430.5,604.5 h 254.3 l -430.4,-604.5"
           style="fill:#12100e;fill-opacity:1;fill-rule:evenodd;stroke:none"
           id="path164" /><path
           d="m 13530.8,1397.4 h -254.3 l 430.4,604.5 h 254.4 l -430.5,-604.5"
           style="fill:#12100e;fill-opacity:1;fill-rule:evenodd;stroke:none"
           id="path166" /><path
           d="m 14000.4,1397.4 h -254.3 l 430.4,604.5 h 254.3 l -430.4,-604.5"
           style="fill:#12100e;fill-opacity:1;fill-rule:evenodd;stroke:none"
           id="path168" /><path
           d="m 14470,1397.4 h -254.4 l 430.5,604.5 h 254.3 L 14470,1397.4"
           style="fill:#12100e;fill-opacity:1;fill-rule:evenodd;stroke:none"
           id="path170" /><path
           d="m 14939.5,1397.4 h -254.3 l 430.4,604.5 h 254.4 l -430.5,-604.5"
           style="fill:#12100e;fill-opacity:1;fill-rule:evenodd;stroke:none"
           id="path172" /><path
           d="m 15409.1,1397.4 h -254.3 l 430.4,604.5 h 254.3 l -430.4,-604.5"
           style="fill:#12100e;fill-opacity:1;fill-rule:evenodd;stroke:none"
           id="path174" /><path
           d="m 15878.7,1397.4 h -254.4 l 430.5,604.5 h 254.3 l -430.4,-604.5"
           style="fill:#12100e;fill-opacity:1;fill-rule:evenodd;stroke:none"
           id="path176" /><path
           d="m 16348.2,1397.4 h -254.3 l 430.4,604.5 h 254.4 l -430.5,-604.5"
           style="fill:#12100e;fill-opacity:1;fill-rule:evenodd;stroke:none"
           id="path178" /><path
           d="m 16817.8,1397.4 h -254.3 l 430.4,604.5 h 254.3 l -430.4,-604.5"
           style="fill:#12100e;fill-opacity:1;fill-rule:evenodd;stroke:none"
           id="path180" /><path
           d="M 17287.4,1397.4 H 17033 l 430.5,604.5 h 254.3 l -430.4,-604.5"
           style="fill:#12100e;fill-opacity:1;fill-rule:evenodd;stroke:none"
           id="path182" /><path
           d="m 17756.9,1397.4 h -254.3 l 430.4,604.5 h 254.4 l -430.5,-604.5"
           style="fill:#12100e;fill-opacity:1;fill-rule:evenodd;stroke:none"
           id="path184" /><path
           d="m 18226.5,1397.4 h -254.3 l 430.4,604.5 h 254.3 l -430.4,-604.5"
           style="fill:#12100e;fill-opacity:1;fill-rule:evenodd;stroke:none"
           id="path186" /><path
           d="m 18696.1,1397.4 h -254.4 l 430.5,604.5 h 254.3 l -430.4,-604.5"
           style="fill:#12100e;fill-opacity:1;fill-rule:evenodd;stroke:none"
           id="path188" /><path
           d="m 19165.6,1397.4 h -254.3 l 430.4,604.5 h 254.4 l -430.5,-604.5"
           style="fill:#12100e;fill-opacity:1;fill-rule:evenodd;stroke:none"
           id="path190" /><path
           d="m 19635.2,1397.4 h -254.3 l 430.4,604.5 h 254.3 l -430.4,-604.5"
           style="fill:#12100e;fill-opacity:1;fill-rule:evenodd;stroke:none"
           id="path192" /><path
           d="m 20104.8,1397.4 h -254.4 l 430.5,604.5 h 254.3 l -430.4,-604.5"
           style="fill:#12100e;fill-opacity:1;fill-rule:evenodd;stroke:none"
           id="path194" /><path
           d="M 20574.3,1397.4 H 20320 l 430.4,604.5 h 254.4 l -430.5,-604.5"
           style="fill:#12100e;fill-opacity:1;fill-rule:evenodd;stroke:none"
           id="path196" /><path
           d="m 21043.9,1397.4 h -254.3 l 430.4,604.5 h 254.3 l -430.4,-604.5"
           style="fill:#12100e;fill-opacity:1;fill-rule:evenodd;stroke:none"
           id="path198" /><path
           d="m 21513.5,1397.4 h -254.4 l 430.5,604.5 h 254.3 l -430.4,-604.5"
           style="fill:#12100e;fill-opacity:1;fill-rule:evenodd;stroke:none"
           id="path200" /><path
           d="m 21983,1397.4 h -254.3 l 430.4,604.5 h 254.4 L 21983,1397.4"
           style="fill:#12100e;fill-opacity:1;fill-rule:evenodd;stroke:none"
           id="path202" /><path
           d="m 22452.6,1397.4 h -254.3 l 430.4,604.5 h 254.3 l -430.4,-604.5"
           style="fill:#12100e;fill-opacity:1;fill-rule:evenodd;stroke:none"
           id="path204" /><path
           d="m 22922.2,1397.4 h -254.4 l 430.5,604.5 h 254.3 l -430.4,-604.5"
           style="fill:#12100e;fill-opacity:1;fill-rule:evenodd;stroke:none"
           id="path206" /><path
           d="m 23391.7,1397.4 h -254.3 l 430.4,604.5 h 254.4 l -430.5,-604.5"
           style="fill:#12100e;fill-opacity:1;fill-rule:evenodd;stroke:none"
           id="path208" /><path
           d="M 23861.3,1397.4 H 23607 l 430.4,604.5 h 254.3 l -430.4,-604.5"
           style="fill:#12100e;fill-opacity:1;fill-rule:evenodd;stroke:none"
           id="path210" /><path
           d="m 24330.9,1397.4 h -254.4 l 430.5,604.5 h 254.3 l -430.4,-604.5"
           style="fill:#12100e;fill-opacity:1;fill-rule:evenodd;stroke:none"
           id="path212" /><path
           d="m 24800.4,1397.4 h -254.3 l 430.4,604.5 h 254.4 l -430.5,-604.5"
           style="fill:#12100e;fill-opacity:1;fill-rule:evenodd;stroke:none"
           id="path214" /><path
           d="m 25270,1397.4 h -254.3 l 430.4,604.5 h 254.3 L 25270,1397.4"
           style="fill:#12100e;fill-opacity:1;fill-rule:evenodd;stroke:none"
           id="path216" /><path
           d="m 25739.6,1397.4 h -254.4 l 430.5,604.5 h 254.3 l -430.4,-604.5"
           style="fill:#12100e;fill-opacity:1;fill-rule:evenodd;stroke:none"
           id="path218" /><path
           d="m 26209.1,1397.4 h -254.3 l 430.4,604.5 h 254.4 l -430.5,-604.5"
           style="fill:#12100e;fill-opacity:1;fill-rule:evenodd;stroke:none"
           id="path220" /><path
           d="m 26678.7,1397.4 h -254.3 l 430.4,604.5 h 254.4 l -430.5,-604.5"
           style="fill:#12100e;fill-opacity:1;fill-rule:evenodd;stroke:none"
           id="path222" /><path
           d="m 27148.3,1397.4 h -254.4 l 430.5,604.5 h 254.3 l -430.4,-604.5"
           style="fill:#12100e;fill-opacity:1;fill-rule:evenodd;stroke:none"
           id="path224" /><path
           d="m 27617.8,1397.4 h -254.3 l 430.4,604.5 h 254.4 l -430.5,-604.5"
           style="fill:#12100e;fill-opacity:1;fill-rule:evenodd;stroke:none"
           id="path226" /><path
           d="m 28087.4,1397.4 h -254.3 l 430.4,604.5 h 254.3 l -430.4,-604.5"
           style="fill:#12100e;fill-opacity:1;fill-rule:evenodd;stroke:none"
           id="path228" /><path
           d="m 28557,1397.4 h -254.4 l 430.5,604.5 h 254.3 L 28557,1397.4"
           style="fill:#12100e;fill-opacity:1;fill-rule:evenodd;stroke:none"
           id="path230" /><path
           d="m 29026.5,1397.4 h -254.3 l 430.4,604.5 h 254.4 l -430.5,-604.5"
           style="fill:#12100e;fill-opacity:1;fill-rule:evenodd;stroke:none"
           id="path232" /><path
           d="m 29496.1,1397.4 h -254.3 l 430.4,604.5 h 254.3 l -430.4,-604.5"
           style="fill:#12100e;fill-opacity:1;fill-rule:evenodd;stroke:none"
           id="path234" /><path
           d="m 29965.7,1397.4 h -254.4 l 430.5,604.5 h 254.3 l -430.4,-604.5"
           style="fill:#12100e;fill-opacity:1;fill-rule:evenodd;stroke:none"
           id="path236" /><path
           d="m 30435.2,1397.4 h -254.3 l 430.4,604.5 h 254.4 l -430.5,-604.5"
           style="fill:#12100e;fill-opacity:1;fill-rule:evenodd;stroke:none"
           id="path238" /><path
           d="m 30904.8,1397.4 h -254.3 l 430.4,604.5 h 254.3 l -430.4,-604.5"
           style="fill:#12100e;fill-opacity:1;fill-rule:evenodd;stroke:none"
           id="path240" /><path
           d="M 31374.4,1397.4 H 31120 l 430.5,604.5 h 254.3 l -430.4,-604.5"
           style="fill:#12100e;fill-opacity:1;fill-rule:evenodd;stroke:none"
           id="path242" /><path
           d="m 31843.9,1397.4 h -254.3 l 430.4,604.5 h 254.4 l -430.5,-604.5"
           style="fill:#12100e;fill-opacity:1;fill-rule:evenodd;stroke:none"
           id="path244" /><path
           d="m 32313.5,1397.4 h -254.3 l 430.4,604.5 h 254.3 l -430.4,-604.5"
           style="fill:#12100e;fill-opacity:1;fill-rule:evenodd;stroke:none"
           id="path246" /><path
           d="m 32783.1,1397.4 h -254.4 l 430.5,604.5 h 254.3 l -430.4,-604.5"
           style="fill:#12100e;fill-opacity:1;fill-rule:evenodd;stroke:none"
           id="path248" /><path
           d="m 33252.6,1397.4 h -254.3 l 430.4,604.5 h 254.4 l -430.5,-604.5"
           style="fill:#12100e;fill-opacity:1;fill-rule:evenodd;stroke:none"
           id="path250" /></g></g><path
       d="M 1860.27,206.82 1720.51,0.25 h 150.92 l 139.75,206.57 h -150.91"
       style="fill:#f8d109;fill-opacity:1;fill-rule:nonzero;stroke:none;stroke-width:0.1"
       id="path252" /><path
       d="M 2180.96,206.82 2041.21,0.25 h 150.91 l 139.75,206.57 h -150.91"
       style="fill:#f8d109;fill-opacity:1;fill-rule:nonzero;stroke:none;stroke-width:0.1"
       id="path254" /><path
       d="M 1218.88,206.82 1079.13,0.25 h 150.91 l 139.75,206.57 h -150.91"
       style="fill:#f5cf17;fill-opacity:1;fill-rule:nonzero;stroke:none;stroke-width:0.1"
       id="path256" /><path
       d="M 5.63672,206.82 V 86.5199 L 87.0215,206.82 Z"
       style="fill:#f8d109;fill-opacity:1;fill-rule:nonzero;stroke:none;stroke-width:0.1"
       id="path258" /><path
       d="M 256.8,206.82 117.046,0.25 H 267.96 L 407.715,206.82 H 256.8"
       style="fill:#f8d109;fill-opacity:1;fill-rule:nonzero;stroke:none;stroke-width:0.1"
       id="path260" /><path
       d="M 898.187,206.82 758.432,0.25 H 909.347 L 1049.1,206.82 H 898.187"
       style="fill:#f8d109;fill-opacity:1;fill-rule:nonzero;stroke:none;stroke-width:0.1"
       id="path262" /><path
       d="M 2501.65,206.82 2361.9,0.25 h 150.91 l 139.76,206.57 h -150.92"
       style="fill:#f8d109;fill-opacity:1;fill-rule:nonzero;stroke:none;stroke-width:0.1"
       id="path264" /><path
       d="M 577.494,206.82 437.739,0.25 H 588.653 L 728.408,206.82 H 577.494"
       style="fill:#f8d109;fill-opacity:1;fill-rule:nonzero;stroke:none;stroke-width:0.1"
       id="path266" /><path
       d="M 1539.57,206.82 1399.82,0.25 h 150.91 l 139.76,206.57 h -150.92"
       style="fill:#f8d109;fill-opacity:1;fill-rule:nonzero;stroke:none;stroke-width:0.1"
       id="path268" /><path
       d="M 3143.04,206.82 3003.28,0.25 h 150.92 l 139.75,206.57 h -150.91"
       style="fill:#f8d109;fill-opacity:1;fill-rule:nonzero;stroke:none;stroke-width:0.1"
       id="path270" /><path
       d="M 2822.35,206.82 2682.59,0.25 h 150.92 l 139.75,206.57 h -150.91"
       style="fill:#f8d109;fill-opacity:1;fill-rule:nonzero;stroke:none;stroke-width:0.1"
       id="path272" /><path
       d="M 87.0215,206.82 5.63672,86.5199 V 0.25 H 117.046 L 256.8,206.82 H 87.0215"
       style="fill:#12100e;fill-opacity:1;fill-rule:nonzero;stroke:none;stroke-width:0.1"
       id="path274" /><path
       d="M 407.715,206.82 267.96,0.25 H 437.739 L 577.494,206.82 H 407.715"
       style="fill:#12100e;fill-opacity:1;fill-rule:nonzero;stroke:none;stroke-width:0.1"
       id="path276" /><path
       d="M 728.408,206.82 588.653,0.25 H 758.432 L 898.187,206.82 H 728.408"
       style="fill:#12100e;fill-opacity:1;fill-rule:nonzero;stroke:none;stroke-width:0.1"
       id="path278" /><path
       d="M 1049.1,206.82 909.347,0.25 h 169.783 l 139.75,206.57 H 1049.1"
       style="fill:#12100e;fill-opacity:1;fill-rule:nonzero;stroke:none;stroke-width:0.1"
       id="path280" /><path
       d="M 1369.79,206.82 1230.04,0.25 h 169.78 l 139.75,206.57 h -169.78"
       style="fill:#12100e;fill-opacity:1;fill-rule:nonzero;stroke:none;stroke-width:0.1"
       id="path282" /><path
       d="M 1690.49,206.82 1550.73,0.25 h 169.78 l 139.76,206.57 h -169.78"
       style="fill:#12100e;fill-opacity:1;fill-rule:nonzero;stroke:none;stroke-width:0.1"
       id="path284" /><path
       d="M 2011.18,206.82 1871.43,0.25 h 169.78 l 139.75,206.57 h -169.78"
       style="fill:#12100e;fill-opacity:1;fill-rule:nonzero;stroke:none;stroke-width:0.1"
       id="path286" /><path
       d="M 2331.87,206.82 2192.12,0.25 h 169.78 l 139.75,206.57 h -169.78"
       style="fill:#12100e;fill-opacity:1;fill-rule:nonzero;stroke:none;stroke-width:0.1"
       id="path288" /><path
       d="M 2652.57,206.82 2512.81,0.25 h 169.78 l 139.76,206.57 h -169.78"
       style="fill:#12100e;fill-opacity:1;fill-rule:nonzero;stroke:none;stroke-width:0.1"
       id="path290" /><path
       d="M 2973.26,206.82 2833.51,0.25 h 169.77 l 139.76,206.57 h -169.78"
       style="fill:#12100e;fill-opacity:1;fill-rule:nonzero;stroke:none;stroke-width:0.1"
       id="path292" /><path
       d="m 3300,206.82 h -6.05 L 3154.2,0.25 H 3300 v 206.57"
       style="fill:#12100e;fill-opacity:1;fill-rule:nonzero;stroke:none;stroke-width:0.1"
       id="path294" /><path
       d="M 695.653,965.51 H 597.322 L 489.314,532.18 h 314.339 l -108,433.33"
       style="fill:#f68522;fill-opacity:1;fill-rule:nonzero;stroke:none;stroke-width:0.1"
       id="path296" /><path
       d="M 864.027,480.3 H 428.94 v 51.88 H 864.027 V 480.3"
       style="fill:#f36a17;fill-opacity:1;fill-rule:nonzero;stroke:none;stroke-width:0.1"
       id="path298" /><path
       d="M 864.027,524.32 H 428.94 v 7.86 h 435.087 v -7.86"
       style="fill:#d3541e;fill-opacity:1;fill-rule:nonzero;stroke:none;stroke-width:0.1"
       id="path300" /><path
       d="m 501.436,580.81 h 290.095 l -25.756,103.3 H 527.184 l -25.748,-103.3"
       style="fill:#ffffff;fill-opacity:1;fill-rule:nonzero;stroke:none;stroke-width:0.1"
       id="path302" /><path
       d="M 718.623,873.31 H 574.336 l -25.749,-103.3 h 195.784 l -25.748,103.3"
       style="fill:#ffffff;fill-opacity:1;fill-rule:nonzero;stroke:none;stroke-width:0.1"
       id="path304" /><path
       d="m 2639.4,965.51 h -98.33 L 2433.06,532.18 h 314.34 l -108,433.33"
       style="fill:#f68522;fill-opacity:1;fill-rule:nonzero;stroke:none;stroke-width:0.1"
       id="path306" /><path
       d="m 2807.77,480.3 h -435.09 v 51.88 h 435.09 V 480.3"
       style="fill:#f36a17;fill-opacity:1;fill-rule:nonzero;stroke:none;stroke-width:0.1"
       id="path308" /><path
       d="m 2807.77,524.32 h -435.09 v 7.86 h 435.09 v -7.86"
       style="fill:#d3541e;fill-opacity:1;fill-rule:nonzero;stroke:none;stroke-width:0.1"
       id="path310" /><path
       d="m 2445.18,580.81 h 290.09 l -25.75,103.3 h -238.59 l -25.75,-103.3"
       style="fill:#ffffff;fill-opacity:1;fill-rule:nonzero;stroke:none;stroke-width:0.1"
       id="path312" /><path
       d="m 2662.37,873.31 h -144.29 l -25.75,-103.3 h 195.78 l -25.74,103.3"
       style="fill:#ffffff;fill-opacity:1;fill-rule:nonzero;stroke:none;stroke-width:0.1"
       id="path314" /><path
       d="m 1082.06,531.42 h -94.144 v 1385.31 h 94.144 V 531.42"
       style="fill:#171312;fill-opacity:1;fill-rule:nonzero;stroke:none;stroke-width:0.1"
       id="path316" /><path
       d="m 1092.73,531.42 h -94.142 v 1385.31 h 94.142 V 531.42"
       style="fill:#3d4047;fill-opacity:1;fill-rule:nonzero;stroke:none;stroke-width:0.1"
       id="path318" /><path
       d="M 1120.27,502.37 H 960.401 v 29.05 h 159.869 v -29.05"
       style="fill:#8f9295;fill-opacity:1;fill-rule:nonzero;stroke:none;stroke-width:0.1"
       id="path320" /><path
       d="M 1166.86,480.3 H 913.792 v 29.57 H 1166.86 V 480.3"
       style="fill:#414244;fill-opacity:1;fill-rule:nonzero;stroke:none;stroke-width:0.1"
       id="path322" /><path
       d="m 2228.01,531.42 h -94.14 v 1385.31 h 94.14 V 531.42"
       style="fill:#171312;fill-opacity:1;fill-rule:nonzero;stroke:none;stroke-width:0.1"
       id="path324" /><path
       d="m 2238.71,531.42 h -94.15 v 1385.31 h 94.15 V 531.42"
       style="fill:#3d4047;fill-opacity:1;fill-rule:nonzero;stroke:none;stroke-width:0.1"
       id="path326" /><path
       d="m 2266.22,502.37 h -159.87 v 29.05 h 159.87 v -29.05"
       style="fill:#8f9295;fill-opacity:1;fill-rule:nonzero;stroke:none;stroke-width:0.1"
       id="path328" /><path
       d="m 2312.83,480.3 h -253.06 v 29.57 h 253.06 V 480.3"
       style="fill:#414244;fill-opacity:1;fill-rule:nonzero;stroke:none;stroke-width:0.1"
       id="path330" /><path
       d="M 2449.24,1690.57 H 787.471 V 1871.6 H 2449.24 v -181.03"
       style="fill:#211d1d;fill-opacity:1;fill-rule:nonzero;stroke:none;stroke-width:0.1"
       id="path332" /><path
       d="m 815.368,1871.6 -27.897,-50.93 v -130.1 h 49.201 l 99.249,181.03 H 815.368"
       style="fill:#f5cf17;fill-opacity:1;fill-rule:nonzero;stroke:none;stroke-width:0.1"
       id="path334" /><path
       d="m 1014.37,1871.6 -99.211,-181.03 h 120.531 l 99.23,181.03 h -120.55"
       style="fill:#f5cf17;fill-opacity:1;fill-rule:nonzero;stroke:none;stroke-width:0.1"
       id="path336" /><path
       d="m 1213.38,1871.6 -99.22,-181.03 h 120.53 l 99.23,181.03 h -120.54"
       style="fill:#f5cf17;fill-opacity:1;fill-rule:nonzero;stroke:none;stroke-width:0.1"
       id="path338" /><path
       d="m 1412.38,1871.6 -99.22,-181.03 h 120.53 l 99.23,181.03 h -120.54"
       style="fill:#f5cf17;fill-opacity:1;fill-rule:nonzero;stroke:none;stroke-width:0.1"
       id="path340" /><path
       d="m 1611.38,1871.6 -99.23,-181.03 h 120.56 l 99.22,181.03 h -120.55"
       style="fill:#f5cf17;fill-opacity:1;fill-rule:nonzero;stroke:none;stroke-width:0.1"
       id="path342" /><path
       d="m 1810.38,1871.6 -99.23,-181.03 h 120.55 l 99.23,181.03 h -120.55"
       style="fill:#f5cf17;fill-opacity:1;fill-rule:nonzero;stroke:none;stroke-width:0.1"
       id="path344" /><path
       d="m 2009.4,1871.6 -99.23,-181.03 h 120.53 l 99.23,181.03 H 2009.4"
       style="fill:#f5cf17;fill-opacity:1;fill-rule:nonzero;stroke:none;stroke-width:0.1"
       id="path346" /><path
       d="m 2208.38,1871.6 -99.21,-181.03 h 120.53 l 99.23,181.03 h -120.55"
       style="fill:#f5cf17;fill-opacity:1;fill-rule:nonzero;stroke:none;stroke-width:0.1"
       id="path348" /><path
       d="m 2449.24,1871.6 h -41.85 l -99.22,-181.03 h 120.55 l 20.52,37.45 v 143.58"
       style="fill:#f5cf17;fill-opacity:1;fill-rule:nonzero;stroke:none;stroke-width:0.1"
       id="path350" /><path
       d="M 2449.24,1350.68 H 787.471 V 1531.7 H 2449.24 v -181.02"
       style="fill:#211d1d;fill-opacity:1;fill-rule:nonzero;stroke:none;stroke-width:0.1"
       id="path352" /><path
       d="m 815.368,1531.7 -27.897,-50.92 v -130.1 h 49.201 l 99.249,181.02 H 815.368"
       style="fill:#f5cf17;fill-opacity:1;fill-rule:nonzero;stroke:none;stroke-width:0.1"
       id="path354" /><path
       d="m 1014.37,1531.7 -99.211,-181.02 h 120.531 l 99.23,181.02 h -120.55"
       style="fill:#f5cf17;fill-opacity:1;fill-rule:nonzero;stroke:none;stroke-width:0.1"
       id="path356" /><path
       d="m 1213.38,1531.7 -99.22,-181.02 h 120.53 l 99.23,181.02 h -120.54"
       style="fill:#f5cf17;fill-opacity:1;fill-rule:nonzero;stroke:none;stroke-width:0.1"
       id="path358" /><path
       d="m 1412.38,1531.7 -99.22,-181.02 h 120.53 l 99.23,181.02 h -120.54"
       style="fill:#f5cf17;fill-opacity:1;fill-rule:nonzero;stroke:none;stroke-width:0.1"
       id="path360" /><path
       d="m 1611.38,1531.7 -99.23,-181.02 h 120.56 l 99.22,181.02 h -120.55"
       style="fill:#f5cf17;fill-opacity:1;fill-rule:nonzero;stroke:none;stroke-width:0.1"
       id="path362" /><path
       d="m 1810.38,1531.7 -99.23,-181.02 h 120.55 l 99.23,181.02 h -120.55"
       style="fill:#f5cf17;fill-opacity:1;fill-rule:nonzero;stroke:none;stroke-width:0.1"
       id="path364" /><path
       d="m 2009.4,1531.7 -99.23,-181.02 h 120.53 l 99.23,181.02 H 2009.4"
       style="fill:#f5cf17;fill-opacity:1;fill-rule:nonzero;stroke:none;stroke-width:0.1"
       id="path366" /><path
       d="m 2208.38,1531.7 -99.21,-181.02 h 120.53 l 99.23,181.02 h -120.55"
       style="fill:#f5cf17;fill-opacity:1;fill-rule:nonzero;stroke:none;stroke-width:0.1"
       id="path368" /><path
       d="m 2449.24,1531.7 h -41.85 l -99.22,-181.02 h 120.55 l 20.52,37.43 v 143.59"
       style="fill:#f5cf17;fill-opacity:1;fill-rule:nonzero;stroke:none;stroke-width:0.1"
       id="path370" /><path
       d="m 1054.16,1819.65 c 0,-8.89 -7.21,-16.08 -16.08,-16.08 -8.88,0 -16.1,7.19 -16.1,16.08 0,8.88 7.22,16.08 16.1,16.08 8.87,0 16.08,-7.2 16.08,-16.08"
       style="fill:#434344;fill-opacity:1;fill-rule:nonzero;stroke:none;stroke-width:0.1"
       id="path372" /><path
       d="m 1049.42,1819.65 c 0,-6.27 -5.09,-11.34 -11.34,-11.34 -6.27,0 -11.35,5.07 -11.35,11.34 0,6.26 5.08,11.33 11.35,11.33 6.25,0 11.34,-5.07 11.34,-11.33"
       style="fill:#7b7c7f;fill-opacity:1;fill-rule:nonzero;stroke:none;stroke-width:0.1"
       id="path374" /><path
       d="m 1039.27,1812.09 h -2.39 v 15.12 h 2.39 v -15.12"
       style="fill:#636567;fill-opacity:1;fill-rule:nonzero;stroke:none;stroke-width:0.1"
       id="path376" /><path
       d="m 1030.53,1818.45 v 2.39 h 15.11 v -2.39 h -15.11"
       style="fill:#636567;fill-opacity:1;fill-rule:nonzero;stroke:none;stroke-width:0.1"
       id="path378" /><path
       d="m 1054.16,1467.46 c 0,-8.89 -7.21,-16.09 -16.08,-16.09 -8.88,0 -16.1,7.2 -16.1,16.09 0,8.88 7.22,16.08 16.1,16.08 8.87,0 16.08,-7.2 16.08,-16.08"
       style="fill:#434344;fill-opacity:1;fill-rule:nonzero;stroke:none;stroke-width:0.1"
       id="path380" /><path
       d="m 1049.42,1467.45 c 0,-6.26 -5.09,-11.34 -11.34,-11.34 -6.27,0 -11.35,5.08 -11.35,11.34 0,6.26 5.08,11.34 11.35,11.34 6.25,0 11.34,-5.08 11.34,-11.34"
       style="fill:#7b7c7f;fill-opacity:1;fill-rule:nonzero;stroke:none;stroke-width:0.1"
       id="path382" /><path
       d="m 1039.27,1459.9 h -2.39 v 15.11 h 2.39 v -15.11"
       style="fill:#636567;fill-opacity:1;fill-rule:nonzero;stroke:none;stroke-width:0.1"
       id="path384" /><path
       d="m 1030.53,1466.25 v 2.39 h 15.11 v -2.39 h -15.11"
       style="fill:#636567;fill-opacity:1;fill-rule:nonzero;stroke:none;stroke-width:0.1"
       id="path386" /><path
       d="m 2206.69,1819.65 c 0,-8.89 -7.22,-16.08 -16.08,-16.08 -8.88,0 -16.1,7.19 -16.1,16.08 0,8.88 7.22,16.08 16.1,16.08 8.86,0 16.08,-7.2 16.08,-16.08"
       style="fill:#434344;fill-opacity:1;fill-rule:nonzero;stroke:none;stroke-width:0.1"
       id="path388" /><path
       d="m 2201.94,1819.65 c 0,-6.27 -5.08,-11.34 -11.33,-11.34 -6.27,0 -11.36,5.07 -11.36,11.34 0,6.26 5.09,11.33 11.36,11.33 6.25,0 11.33,-5.07 11.33,-11.33"
       style="fill:#7b7c7f;fill-opacity:1;fill-rule:nonzero;stroke:none;stroke-width:0.1"
       id="path390" /><path
       d="m 2191.79,1812.09 h -2.39 v 15.12 h 2.39 v -15.12"
       style="fill:#636567;fill-opacity:1;fill-rule:nonzero;stroke:none;stroke-width:0.1"
       id="path392" /><path
       d="m 2183.05,1818.45 v 2.39 h 15.12 v -2.39 h -15.12"
       style="fill:#636567;fill-opacity:1;fill-rule:nonzero;stroke:none;stroke-width:0.1"
       id="path394" /><path
       d="m 2206.69,1467.46 c 0,-8.89 -7.22,-16.09 -16.08,-16.09 -8.88,0 -16.1,7.2 -16.1,16.09 0,8.88 7.22,16.08 16.1,16.08 8.86,0 16.08,-7.2 16.08,-16.08"
       style="fill:#434344;fill-opacity:1;fill-rule:nonzero;stroke:none;stroke-width:0.1"
       id="path396" /><path
       d="m 2201.94,1467.45 c 0,-6.26 -5.08,-11.34 -11.33,-11.34 -6.27,0 -11.36,5.08 -11.36,11.34 0,6.26 5.09,11.34 11.36,11.34 6.25,0 11.33,-5.08 11.33,-11.34"
       style="fill:#7b7c7f;fill-opacity:1;fill-rule:nonzero;stroke:none;stroke-width:0.1"
       id="path398" /><path
       d="m 2191.79,1459.9 h -2.39 v 15.11 h 2.39 v -15.11"
       style="fill:#636567;fill-opacity:1;fill-rule:nonzero;stroke:none;stroke-width:0.1"
       id="path400" /><path
       d="m 2183.05,1466.25 v 2.39 h 15.12 v -2.39 h -15.12"
       style="fill:#636567;fill-opacity:1;fill-rule:nonzero;stroke:none;stroke-width:0.1"
       id="path402" /><path
       d="m 1289.72,1909.6 v 78.96 c 0,23.12 -18.77,41.87 -41.89,41.87 h -60.9 c -23.13,0 -41.9,-18.75 -41.9,-41.87 v -78.96 h 144.69"
       style="fill:#b12122;fill-opacity:1;fill-rule:nonzero;stroke:none;stroke-width:0.1"
       id="path404" /><path
       d="m 1279.07,1896.64 v 80.8 c 0,19.73 -15.98,35.72 -35.74,35.72 h -51.91 c -19.76,0 -35.74,-15.99 -35.74,-35.72 v -80.8 h 123.39"
       style="fill:#ed2023;fill-opacity:1;fill-rule:nonzero;stroke:none;stroke-width:0.1"
       id="path406" /><path
       d="m 1253.82,1905.03 v 65.28 c 0,11.66 -9.44,21.1 -21.1,21.1 h -30.69 c -11.66,0 -21.11,-9.44 -21.11,-21.1 v -65.28 h 72.9"
       style="fill:#f1461d;fill-opacity:1;fill-rule:nonzero;stroke:none;stroke-width:0.1"
       id="path408" /><path
       d="m 1301.24,1871.6 h -167.73 v 38 h 167.73 v -38"
       style="fill:#454647;fill-opacity:1;fill-rule:nonzero;stroke:none;stroke-width:0.1"
       id="path410" /><path
       d="m 1301.24,1900.44 h -167.73 v 9.16 h 167.73 v -9.16"
       style="fill:#696b6c;fill-opacity:1;fill-rule:nonzero;stroke:none;stroke-width:0.1"
       id="path412" /><path
       d="m 2091.66,1906.81 v 78.95 c 0,23.13 -18.75,41.88 -41.88,41.88 h -60.9 c -23.14,0 -41.89,-18.75 -41.89,-41.88 v -78.95 h 144.67"
       style="fill:#b12122;fill-opacity:1;fill-rule:nonzero;stroke:none;stroke-width:0.1"
       id="path414" /><path
       d="m 2081.01,1893.84 v 80.81 c 0,19.73 -15.98,35.72 -35.72,35.72 h -51.93 c -19.74,0 -35.74,-15.99 -35.74,-35.72 v -80.81 h 123.39"
       style="fill:#ed2023;fill-opacity:1;fill-rule:nonzero;stroke:none;stroke-width:0.1"
       id="path416" /><path
       d="m 2055.79,1902.23 v 65.29 c 0,11.65 -9.47,21.1 -21.13,21.1 h -30.67 c -11.68,0 -21.12,-9.45 -21.12,-21.1 v -65.29 h 72.92"
       style="fill:#f1461d;fill-opacity:1;fill-rule:nonzero;stroke:none;stroke-width:0.1"
       id="path418" /><path
       d="m 2103.18,1868.81 h -167.71 v 38 h 167.71 v -38"
       style="fill:#454647;fill-opacity:1;fill-rule:nonzero;stroke:none;stroke-width:0.1"
       id="path420" /><path
       d="m 2103.18,1897.65 h -167.71 v 9.16 h 167.71 v -9.16"
       style="fill:#696b6c;fill-opacity:1;fill-rule:nonzero;stroke:none;stroke-width:0.1"
       id="path422" /><path
       d="m 1145.57,2475.76 c 0,-43.66 -10.2,-76.28 -30.6,-97.82 -20.39,-21.54 -52.44,-32.31 -96.13,-32.31 -84.292,0 -126.434,43.39 -126.434,130.13 v 175.86 h 75.801 v -180.8 c 0,-19.88 3.881,-34.49 11.653,-43.8 7.761,-9.34 20.76,-13.98 38.98,-13.98 33.95,0 50.95,19.25 50.95,57.78 v 180.8 h 75.78 v -175.86"
       style="fill:#12100e;fill-opacity:1;fill-rule:nonzero;stroke:none;stroke-width:0.1"
       id="path424" /><path
       d="m 1445.95,2351.84 h -78.26 l -100.65,187.01 -1.25,-187.01 h -70.52 v 299.78 l 77.73,0.04 100.89,-184.84 0.61,184.8 h 71.45 v -299.78"
       style="fill:#12100e;fill-opacity:1;fill-rule:nonzero;stroke:none;stroke-width:0.1"
       id="path426" /><path
       d="m 1688.88,2503.13 c 0,54.45 -26.71,81.69 -80.15,81.69 h -35.41 v -165.57 h 35.41 c 28.36,0 48.82,6.37 61.35,19.1 12.53,12.75 18.8,34.33 18.8,64.78 z m 76.42,0 c 0,-48.27 -12.74,-85.74 -38.22,-112.46 -12.42,-12.85 -27.33,-22.51 -44.72,-29.05 -17.4,-6.5 -37.28,-9.78 -59.65,-9.78 h -125.19 v 299.78 h 125.19 c 43.9,0 78.64,-13.12 104.21,-39.3 25.59,-26.21 38.38,-62.6 38.38,-109.19"
       style="fill:#12100e;fill-opacity:1;fill-rule:nonzero;stroke:none;stroke-width:0.1"
       id="path428" /><path
       d="m 2042.07,2351.84 h -235.48 v 299.78 h 231.43 v -62.45 h -155.63 v -52.82 h 142.27 v -60.59 h -142.27 v -56.51 h 159.68 v -67.41"
       style="fill:#12100e;fill-opacity:1;fill-rule:nonzero;stroke:none;stroke-width:0.1"
       id="path430" /><path
       d="m 2259.5,2556.55 c 0,10.34 -3.62,18.38 -10.87,24.06 -7.25,5.69 -16.37,8.56 -27.34,8.56 h -60.25 v -67.39 h 63.37 c 23.38,0 35.09,11.6 35.09,34.77 z m 84.8,-204.71 h -74.53 c -1.06,1.67 -2.09,3.99 -3.13,7 -1.04,3.01 -2.37,7.9 -4.02,14.75 -1.26,9.92 -1.88,18.63 -1.88,26.1 0,17.6 -2.48,31.58 -7.45,41.92 -6.64,13.06 -18.33,19.58 -35.11,19.58 h -57.14 v -109.35 h -75.8 v 299.78 h 148.17 c 27.54,0 50.84,-6.44 69.88,-19.27 21.34,-14.71 32,-36.33 32,-64.93 0,-16.98 -3.92,-32.16 -11.8,-45.51 -7.87,-13.35 -19.05,-23.34 -33.55,-29.96 13.25,-3.92 23.71,-13.57 31.38,-28.92 2.48,-5.78 4.51,-11.74 6.06,-17.85 1.55,-6.11 2.94,-13.31 4.19,-21.56 l 3.72,-43.2 c 1.25,-14.71 4.26,-24.22 9.01,-28.58"
       style="fill:#12100e;fill-opacity:1;fill-rule:nonzero;stroke:none;stroke-width:0.1"
       id="path432" /><path
       d="m 1036.21,2196.45 c 0,-15.69 -5.26,-28.17 -15.8,-37.45 -10.53,-9.28 -23.819,-13.92 -39.862,-13.92 -18.204,0 -32.882,6.16 -44.021,18.48 -11.144,12.3 -16.713,27.95 -16.713,46.94 0,18.28 5.614,33.74 16.843,46.36 11.229,12.61 25.858,18.93 43.891,18.93 14.22,0 26.752,-4.07 37.582,-12.22 12.06,-9.2 18.08,-20.9 18.08,-35.12 h -31.86 c -0.69,6.33 -3.27,11.14 -7.739,14.44 -4.468,3.3 -10.083,4.94 -16.843,4.94 -9.62,0 -16.774,-3.55 -21.458,-10.66 -4.68,-7.13 -7.024,-16 -7.024,-26.67 0,-10.32 2.214,-18.81 6.63,-25.5 5.119,-7.79 12.403,-11.69 21.852,-11.69 14.739,0 22.932,7.71 24.582,23.14 h 31.86"
       style="fill:#12100e;fill-opacity:1;fill-rule:nonzero;stroke:none;stroke-width:0.1"
       id="path434" /><path
       d="m 1136.62,2210.5 c 0,10.23 -2.13,18.78 -6.37,25.62 -4.86,7.81 -12.14,11.71 -21.85,11.71 -9.28,0 -16.39,-3.64 -21.33,-10.94 -4.6,-6.92 -6.89,-15.72 -6.89,-26.39 0,-10.4 2.12,-18.9 6.37,-25.5 4.85,-7.79 12.13,-11.69 21.85,-11.69 4.94,0 9.19,0.93 12.74,2.78 3.56,1.87 6.59,4.75 9.11,8.66 4.24,6.32 6.37,14.91 6.37,25.75 z m 31.74,0 c 0,-18.73 -5.16,-34.16 -15.48,-46.29 -10.93,-12.75 -25.75,-19.13 -44.48,-19.13 -18.56,0 -33.23,6.12 -44.02,18.34 -10.8,12.22 -16.19,27.92 -16.19,47.08 0,18.64 5.24,34.03 15.73,46.17 11.18,12.75 26.01,19.12 44.48,19.12 9.27,0 17.55,-1.54 24.84,-4.62 7.29,-3.07 13.74,-7.82 19.38,-14.24 10.49,-12.05 15.74,-27.54 15.74,-46.43"
       style="fill:#12100e;fill-opacity:1;fill-rule:nonzero;stroke:none;stroke-width:0.1"
       id="path436" /><path
       d="m 1290.35,2147.68 h -32.77 l -42.14,78.3 -0.52,-78.3 h -29.53 v 125.51 l 32.54,0.02 42.25,-77.39 0.25,77.37 h 29.92 v -125.51"
       style="fill:#12100e;fill-opacity:1;fill-rule:nonzero;stroke:none;stroke-width:0.1"
       id="path438" /><path
       d="m 1410.79,2187.08 c 0,-14.73 -5.51,-25.74 -16.53,-33.02 -9.28,-5.98 -21.45,-8.98 -36.53,-8.98 -15.01,0 -27.24,3.42 -36.68,10.27 -10.67,7.81 -16,19.29 -16,34.47 h 31.6 c 0,-6.85 1.99,-11.82 5.99,-14.89 3.98,-3.07 9.66,-4.62 17.03,-4.62 2.87,0 5.4,0.21 7.61,0.65 2.21,0.44 4.27,1.22 6.18,2.35 3.72,1.82 5.59,5.07 5.59,9.75 0,5.37 -5.33,9.84 -15.99,13.39 -3.65,0.86 -6.99,1.72 -10.02,2.55 -3.04,0.82 -5.98,1.66 -8.84,2.53 -10.5,3.03 -18.6,6.75 -24.32,11.18 -3.73,3.12 -6.57,6.75 -8.52,10.87 -1.96,4.11 -2.93,8.81 -2.93,14.1 0,12.4 5.42,22.2 16.26,29.4 9.01,5.81 20.11,8.71 33.29,8.71 6.94,0 13.18,-0.77 18.73,-2.28 5.55,-1.52 10.49,-3.88 14.83,-7.08 10.32,-7.28 15.47,-17.65 15.47,-31.09 h -31.99 c 0,5.21 -1.87,9.01 -5.59,11.45 -1.83,1.22 -3.9,2.14 -6.24,2.79 -2.34,0.65 -4.86,0.99 -7.55,0.99 -3.99,0 -7.56,-0.81 -10.73,-2.42 -3.17,-1.6 -4.74,-4.36 -4.74,-8.25 0,-3.22 2.12,-5.9 6.37,-8.06 l 28.74,-8.46 c 10.66,-3.04 18.77,-6.85 24.32,-11.45 7.46,-6.24 11.19,-14.53 11.19,-24.85"
       style="fill:#12100e;fill-opacity:1;fill-rule:nonzero;stroke:none;stroke-width:0.1"
       id="path440" /><path
       d="m 1522.25,2245.23 h -36.42 v -97.55 h -31.99 v 97.55 h -35.9 v 27.96 h 104.31 v -27.96"
       style="fill:#12100e;fill-opacity:1;fill-rule:nonzero;stroke:none;stroke-width:0.1"
       id="path442" /><path
       d="m 1609.12,2233.39 c 0,4.33 -1.51,7.69 -4.55,10.07 -3.03,2.38 -6.85,3.59 -11.44,3.59 h -25.23 v -28.22 h 26.53 c 9.79,0 14.69,4.86 14.69,14.56 z m 35.51,-85.71 h -31.21 c -0.44,0.7 -0.87,1.67 -1.31,2.93 -0.43,1.26 -0.99,3.31 -1.68,6.18 -0.52,4.15 -0.79,7.8 -0.79,10.92 0,7.37 -1.04,13.22 -3.12,17.56 -2.77,5.46 -7.67,8.19 -14.69,8.19 h -23.93 v -45.78 h -31.74 v 125.51 h 62.04 c 11.53,0 21.29,-2.69 29.26,-8.06 8.94,-6.16 13.4,-15.21 13.4,-27.19 0,-7.11 -1.65,-13.46 -4.94,-19.05 -3.3,-5.59 -7.98,-9.78 -14.05,-12.55 5.55,-1.64 9.93,-5.68 13.14,-12.1 1.04,-2.43 1.89,-4.92 2.53,-7.48 0.65,-2.56 1.24,-5.57 1.76,-9.03 l 1.56,-18.08 c 0.52,-6.16 1.78,-10.14 3.77,-11.97"
       style="fill:#12100e;fill-opacity:1;fill-rule:nonzero;stroke:none;stroke-width:0.1"
       id="path444" /><path
       d="m 1764.67,2199.56 c 0,-18.28 -4.27,-31.93 -12.81,-40.95 -8.53,-9.02 -21.96,-13.53 -40.25,-13.53 -35.29,0 -52.93,18.17 -52.93,54.48 v 73.63 h 31.73 v -75.7 c 0,-8.32 1.63,-14.43 4.88,-18.33 3.25,-3.91 8.69,-5.85 16.32,-5.85 14.22,0 21.34,8.05 21.34,24.18 v 75.7 h 31.72 v -73.63"
       style="fill:#12100e;fill-opacity:1;fill-rule:nonzero;stroke:none;stroke-width:0.1"
       id="path446" /><path
       d="m 1898.37,2196.45 c 0,-15.69 -5.26,-28.17 -15.8,-37.45 -10.53,-9.28 -23.82,-13.92 -39.86,-13.92 -18.21,0 -32.89,6.16 -44.03,18.48 -11.14,12.3 -16.71,27.95 -16.71,46.94 0,18.28 5.61,33.74 16.84,46.36 11.23,12.61 25.86,18.93 43.9,18.93 14.21,0 26.74,-4.07 37.58,-12.22 12.05,-9.2 18.08,-20.9 18.08,-35.12 h -31.87 c -0.69,6.33 -3.27,11.14 -7.73,14.44 -4.47,3.3 -10.08,4.94 -16.84,4.94 -9.63,0 -16.78,-3.55 -21.47,-10.66 -4.68,-7.13 -7.02,-16 -7.02,-26.67 0,-10.32 2.21,-18.81 6.63,-25.5 5.12,-7.79 12.4,-11.69 21.86,-11.69 14.74,0 22.93,7.71 24.57,23.14 h 31.87"
       style="fill:#12100e;fill-opacity:1;fill-rule:nonzero;stroke:none;stroke-width:0.1"
       id="path448" /><path
       d="m 2011.79,2245.23 h -36.43 v -97.55 h -31.98 v 97.55 h -35.9 v 27.96 h 104.31 v -27.96"
       style="fill:#12100e;fill-opacity:1;fill-rule:nonzero;stroke:none;stroke-width:0.1"
       id="path450" /><path
       d="m 2057.44,2147.68 h -31.74 v 125.51 h 31.74 v -125.51"
       style="fill:#12100e;fill-opacity:1;fill-rule:nonzero;stroke:none;stroke-width:0.1"
       id="path452" /><path
       d="m 2163.17,2210.5 c 0,10.23 -2.13,18.78 -6.37,25.62 -4.86,7.81 -12.14,11.71 -21.85,11.71 -9.28,0 -16.39,-3.64 -21.33,-10.94 -4.6,-6.92 -6.89,-15.72 -6.89,-26.39 0,-10.4 2.12,-18.9 6.37,-25.5 4.85,-7.79 12.14,-11.69 21.85,-11.69 4.94,0 9.19,0.93 12.74,2.78 3.55,1.87 6.59,4.75 9.11,8.66 4.24,6.32 6.37,14.91 6.37,25.75 z m 31.74,0 c 0,-18.73 -5.16,-34.16 -15.48,-46.29 -10.93,-12.75 -25.75,-19.13 -44.48,-19.13 -18.56,0 -33.23,6.12 -44.02,18.34 -10.8,12.22 -16.2,27.92 -16.2,47.08 0,18.64 5.24,34.03 15.74,46.17 11.18,12.75 26.01,19.12 44.48,19.12 9.27,0 17.55,-1.54 24.84,-4.62 7.29,-3.07 13.74,-7.82 19.38,-14.24 10.49,-12.05 15.74,-27.54 15.74,-46.43"
       style="fill:#12100e;fill-opacity:1;fill-rule:nonzero;stroke:none;stroke-width:0.1"
       id="path454" /><path
       d="m 2316.9,2147.68 h -32.77 l -42.14,78.3 -0.52,-78.3 h -29.53 v 125.51 l 32.54,0.02 42.24,-77.39 0.26,77.37 h 29.92 v -125.51"
       style="fill:#12100e;fill-opacity:1;fill-rule:nonzero;stroke:none;stroke-width:0.1"
       id="path456" /><path
       d="m 2054.38,596.66 -394.46,683.24 c -7.49,12.95 -21.31,20.93 -36.26,20.93 -14.96,0 -28.78,-7.98 -36.25,-20.93 L 1191.97,594.97 c -7.48,-12.95 -7.48,-28.91 0,-41.86 7.47,-12.95 21.29,-20.92 36.24,-20.92 l 790.89,-0.01 c 0.01,0.01 0.03,0.01 0.06,0 23.11,0 41.85,18.74 41.85,41.86 0,8.33 -2.44,16.1 -6.63,22.62"
       style="fill:#f5cf17;fill-opacity:1;fill-rule:nonzero;stroke:none;stroke-width:0.1"
       id="path458" /><path
       d="m 1636.2,915.2 c 21.31,0 38.58,17.27 38.58,38.58 0,21.32 -17.27,38.59 -38.58,38.59 -21.31,0 -38.59,-17.27 -38.59,-38.59 0,-21.31 17.28,-38.58 38.59,-38.58"
       style="fill:#100f0d;fill-opacity:1;fill-rule:nonzero;stroke:none;stroke-width:0.1"
       id="path460" /><path
       d="m 1519.08,898.28 h 14.69 l -31.65,-36.78 -7.68,4.81 z m 76.07,-45.37 16.03,-59.75 -43.82,27.45 z M 1854.72,657 l -26.17,17.45 3.96,25.38 -16.76,21.4 -3.49,0.41 -9.02,25.75 -41.29,-3.16 -6.87,-15.55 -25.65,-4.21 -2.57,-3.8 -86.23,54.04 c 2.93,3.52 4.24,8.33 3.08,13.13 l -27.87,103.94 c -0.22,0.93 -0.54,1.8 -0.91,2.64 -1.01,9.25 -5.39,18.16 -13,24.7 -3.3,2.84 -6.95,5.01 -10.79,6.53 -1.38,0.97 -4.68,1.7 -7.85,2.16 -1.38,0.23 -2.77,0.37 -4.16,0.45 -0.74,0.05 -1.41,0.07 -1.92,0.07 h -63.38 c -0.35,0 -0.67,-0.02 -1,-0.04 -4.88,0.37 -9.84,-1.64 -13.05,-5.8 l -30.93,-40.14 -12.69,7.95 -5.06,-8.06 11.91,-7.47 -2.97,-3.84 c -5.06,-6.58 -3.84,-16.01 2.73,-21.08 6.57,-5.07 16.01,-3.85 21.08,2.73 l 4.75,6.16 7.24,-4.54 -4.64,-5.4 c -8.12,-9.43 -10.8,-21.7 -8.33,-32.99 -0.09,-0.72 -0.15,-1.44 -0.15,-2.19 v -82.64 l -41.23,-73.22 c -4.83,-8.56 -1.79,-19.41 6.78,-24.24 8.56,-4.82 19.41,-1.78 24.23,6.77 l 40.32,71.58 3.32,5.89 c 1.19,2.12 1.9,4.38 2.16,6.66 0.15,1.3 0.15,2.6 0.02,3.88 v 54.09 l 35.21,-45.23 2,-87.86 c 0.24,-10.21 8.39,-18.31 18.22,-18.09 9.83,0.23 17.6,8.69 17.37,18.91 l -2.1,92.42 c -0.01,0.26 -0.05,0.51 -0.07,0.78 0.05,3.87 -1.17,7.79 -3.74,11.09 l -35.54,45.65 11.41,13.26 53.75,-33.68 c 2.26,-6.89 9.14,-11.19 16.29,-10.21 l 90.41,-56.65 -10.37,-15.33 -11.96,-35.8 h -9.64 l -19.48,-19.71 -19.94,-10.73 h 37.65 174.86 l -7.93,25.79"
       style="fill:#100f0d;fill-opacity:1;fill-rule:nonzero;stroke:none;stroke-width:0.1"
       id="path462" /><path
       d="m 1251.01,587.2 745.3,-0.01 -372.65,645.46 z m 768.15,-26.32 c -0.03,0 -0.04,0 -0.06,0 l -790.89,0.01 c -4.7,0 -9.03,2.5 -11.39,6.57 -2.35,4.07 -2.35,9.09 0,13.16 l 395.44,684.92 c 2.36,4.07 6.7,6.59 11.4,6.59 4.69,0 9.05,-2.52 11.39,-6.59 l 394.93,-684.03 c 1.47,-2.12 2.33,-4.69 2.33,-7.47 0,-7.27 -5.89,-13.16 -13.15,-13.16"
       style="fill:#211d1d;fill-opacity:1;fill-rule:nonzero;stroke:none;stroke-width:0.1"
       id="path464" /></g></svg>
