<?xml version="1.0" encoding="UTF-8" standalone="no"?>
<svg
   xmlns:dc="http://purl.org/dc/elements/1.1/"
   xmlns:cc="http://creativecommons.org/ns#"
   xmlns:rdf="http://www.w3.org/1999/02/22-rdf-syntax-ns#"
   xmlns:svg="http://www.w3.org/2000/svg"
   xmlns="http://www.w3.org/2000/svg"
   xmlns:sodipodi="http://sodipodi.sourceforge.net/DTD/sodipodi-0.dtd"
   xmlns:inkscape="http://www.inkscape.org/namespaces/inkscape"
   version="1.1"
   id="svg2"
   xml:space="preserve"
   width="1333.3333"
   height="1066.6667"
   viewBox="0 0 1333.3333 1066.6667"
   sodipodi:docname="10012019-12.eps"><metadata
     id="metadata8"><rdf:RDF><cc:Work
         rdf:about=""><dc:format>image/svg+xml</dc:format><dc:type
           rdf:resource="http://purl.org/dc/dcmitype/StillImage" /></cc:Work></rdf:RDF></metadata><defs
     id="defs6" /><sodipodi:namedview
     pagecolor="#ffffff"
     bordercolor="#666666"
     borderopacity="1"
     objecttolerance="10"
     gridtolerance="10"
     guidetolerance="10"
     inkscape:pageopacity="0"
     inkscape:pageshadow="2"
     inkscape:window-width="640"
     inkscape:window-height="480"
     id="namedview4" /><g
     id="g10"
     inkscape:groupmode="layer"
     inkscape:label="ink_ext_XXXXXX"
     transform="matrix(1.3333333,0,0,-1.3333333,0,1066.6667)"><g
       id="g12"
       transform="scale(0.1)"><path
         d="m 6959.15,6041.85 c 0,0 -813.43,-1041.55 -942.5,-1098.58 -129.07,-57.03 -318.17,-36.02 -417.22,-69.03 -99.05,-33.02 -411.22,-81.05 -411.22,-81.05 0,0 -63.03,-117.06 93.05,-123.06 156.08,-6.01 270.14,54.03 309.16,21.01 39.03,-33.02 91.72,-64.36 0.84,-155.25 -90.88,-90.88 -589.96,-600.86 -553.13,-670.19 51.03,-96.05 491,432.86 534.28,411.22 48.03,-24.01 -439.36,-522.01 -423.22,-591.31 25.51,-109.56 180.1,72.04 318.17,240.12 138.07,168.09 236.67,279.61 247.4,232.86 10.74,-46.76 -435.66,-481.15 -372.63,-544.18 63.03,-63.04 470.41,476.41 527.44,467.41 57.03,-9.01 -208.28,-394.44 -156.08,-450.24 43.52,-46.53 143.45,120.93 258.14,318.17 111.38,191.56 237.12,285.15 300.15,384.2 63.04,99.05 126.07,372.2 198.11,444.23 72.04,72.04 903.48,849.45 903.48,849.45 l -414.22,414.22"
         style="fill:#7eca2d;fill-opacity:1;fill-rule:nonzero;stroke:none"
         id="path14" /><path
         d="m 3040.85,1958.15 c 0,0 813.43,1041.55 942.5,1098.58 129.07,57.03 318.17,36.02 417.22,69.03 99.05,33.02 411.22,81.05 411.22,81.05 0,0 63.03,117.06 -93.05,123.06 -156.08,6.01 -270.14,-54.03 -309.16,-21.01 -39.02,33.02 -91.72,64.36 -0.84,155.25 90.88,90.88 589.96,600.86 553.13,670.19 -51.03,96.05 -490.99,-432.86 -534.28,-411.22 -48.03,24.01 439.36,522.01 423.22,591.31 -25.51,109.56 -180.09,-72.04 -318.17,-240.12 -138.07,-168.09 -236.66,-279.61 -247.4,-232.86 -10.73,46.76 435.67,481.15 372.63,544.18 -63.03,63.04 -470.41,-476.41 -527.44,-467.41 -57.03,9.01 208.28,394.44 156.08,450.24 -43.52,46.53 -143.45,-120.93 -258.13,-318.17 -111.39,-191.56 -237.13,-285.15 -300.16,-384.2 -63.04,-99.05 -126.07,-372.2 -198.11,-444.23 -72.04,-72.04 -903.47,-849.45 -903.47,-849.45 l 414.21,-414.22"
         style="fill:#e71c6d;fill-opacity:1;fill-rule:nonzero;stroke:none"
         id="path16" /><path
         d="m 2958.15,5959.15 c 0,0 1041.55,-813.43 1098.58,-942.5 57.03,-129.07 36.02,-318.17 69.03,-417.22 33.02,-99.05 81.05,-411.22 81.05,-411.22 0,0 117.06,-63.03 123.06,93.05 6.01,156.08 -54.03,270.14 -21.01,309.16 33.02,39.02 64.37,91.72 155.25,0.84 90.88,-90.88 600.86,-589.96 670.19,-553.13 96.05,51.03 -432.86,490.99 -411.22,534.28 24.01,48.03 522.01,-439.36 591.31,-423.22 109.56,25.51 -72.03,180.1 -240.12,318.17 -168.09,138.07 -279.61,236.66 -232.86,247.4 46.76,10.74 481.15,-435.66 544.19,-372.63 63.03,63.03 -476.42,470.41 -467.42,527.44 9.01,57.03 394.44,-208.28 450.24,-156.08 46.53,43.52 -120.93,143.45 -318.17,258.14 -191.56,111.38 -285.15,237.12 -384.2,300.15 -99.05,63.04 -372.2,126.07 -444.23,198.11 -72.04,72.04 -849.45,903.48 -849.45,903.48 l -414.22,-414.22"
         style="fill:#f48516;fill-opacity:1;fill-rule:nonzero;stroke:none"
         id="path18" /><path
         d="m 7041.85,2040.85 c 0,0 -1041.55,813.43 -1098.58,942.5 -57.03,129.07 -36.02,318.17 -69.03,417.22 -33.02,99.05 -81.05,411.22 -81.05,411.22 0,0 -117.06,63.03 -123.06,-93.05 -6,-156.08 54.03,-270.14 21.01,-309.16 -33.02,-39.02 -64.36,-91.72 -155.25,-0.84 -90.88,90.88 -600.86,589.96 -670.19,553.13 -96.05,-51.03 432.86,-490.99 411.22,-534.28 -24.01,-48.03 -522.01,439.36 -591.31,423.22 -109.56,-25.51 72.04,-180.1 240.12,-318.17 168.09,-138.07 279.61,-236.66 232.86,-247.4 -46.76,-10.74 -481.15,435.67 -544.18,372.63 -63.04,-63.03 476.41,-470.41 467.41,-527.44 -9.01,-57.03 -394.44,208.28 -450.24,156.08 -46.52,-43.52 120.93,-143.45 318.17,-258.13 191.56,-111.39 285.15,-237.13 384.2,-300.16 99.05,-63.04 372.2,-126.07 444.24,-198.11 72.03,-72.04 849.44,-903.48 849.44,-903.48 l 414.22,414.22"
         style="fill:#50abe4;fill-opacity:1;fill-rule:nonzero;stroke:none"
         id="path20" /></g></g></svg>
