<?xml version="1.0" encoding="UTF-8" standalone="no"?>
<svg
   version="1.1"
   id="svg2"
   xml:space="preserve"
   width="492.32532"
   height="492.32666"
   viewBox="0 0 492.32534 492.32664"
   sodipodi:docname="home.svg"
   inkscape:version="1.1.1 (3bf5ae0d25, 2021-09-20)"
   xmlns:inkscape="http://www.inkscape.org/namespaces/inkscape"
   xmlns:sodipodi="http://sodipodi.sourceforge.net/DTD/sodipodi-0.dtd"
   xmlns="http://www.w3.org/2000/svg"
   xmlns:svg="http://www.w3.org/2000/svg"
   xmlns:rdf="http://www.w3.org/1999/02/22-rdf-syntax-ns#"
   xmlns:cc="http://creativecommons.org/ns#"
   xmlns:dc="http://purl.org/dc/elements/1.1/"><metadata
     id="metadata8"><rdf:RDF><cc:Work
         rdf:about=""><dc:format>image/svg+xml</dc:format><dc:type
           rdf:resource="http://purl.org/dc/dcmitype/StillImage" /></cc:Work></rdf:RDF></metadata><defs
     id="defs6" /><sodipodi:namedview
     pagecolor="#ffffff"
     bordercolor="#666666"
     borderopacity="1"
     objecttolerance="10"
     gridtolerance="10"
     guidetolerance="10"
     inkscape:pageopacity="0"
     inkscape:pageshadow="2"
     inkscape:window-width="1920"
     inkscape:window-height="1017"
     id="namedview4"
     inkscape:pagecheckerboard="0"
     showgrid="false"
     inkscape:zoom="0.77999994"
     inkscape:cx="245.51284"
     inkscape:cy="226.28207"
     inkscape:window-x="-8"
     inkscape:window-y="-8"
     inkscape:window-maximized="1"
     inkscape:current-layer="g12"
     fit-margin-top="0"
     fit-margin-left="0"
     fit-margin-right="0"
     fit-margin-bottom="0" /><g
     id="g10"
     inkscape:groupmode="layer"
     inkscape:label="ink_ext_XXXXXX"
     transform="matrix(1.3333333,0,0,-1.3333333,-420.50399,759.22131)"><g
       id="g12"
       transform="scale(0.1)"><path
         d="m 4199.18,4911.01 v -364.37 l -591.89,-591.9 h 251.28 L 5000,5096.16 6141.43,3954.74 h 251.28 L 5000,5347.45 4399.39,4746.84 v 164.17 h -200.21"
         style="fill:#ffcc81;fill-opacity:1;fill-rule:nonzero;stroke:none"
         id="path14" /><path
         d="m 4834.45,4315.7 h 130.94 v 130.94 H 4834.45 V 4315.7"
         style="fill:#ffcc81;fill-opacity:1;fill-rule:nonzero;stroke:none"
         id="path16" /><path
         d="m 5034.61,4315.7 h 130.94 v 130.94 H 5034.61 V 4315.7"
         style="fill:#ffcc81;fill-opacity:1;fill-rule:nonzero;stroke:none"
         id="path18" /><path
         d="m 4965.39,4520.15 v 130.94 h -130.94 v -136.04 h 130.94 v 5.1"
         style="fill:#ffcc81;fill-opacity:1;fill-rule:nonzero;stroke:none"
         id="path20" /><path
         d="m 5165.55,4520.15 v 130.94 h -130.94 v -136.04 h 130.94 v 5.1"
         style="fill:#ffcc81;fill-opacity:1;fill-rule:nonzero;stroke:none"
         id="path22" /><path
         d="M 6012.74,2926.66 V 3965.37 L 5829.11,4149 V 2727.3 h 377.53 C 5905.91,2403.64 5476.65,2201.07 5000,2201.07 c -476.65,0 -905.91,202.57 -1206.64,526.23 h 377.53 v 188.83 10.53 188.83 V 4149 l -183.63,-183.63 v -849.88 -188.83 h -352.52 -234.99 c 2.03,-3.54 4.16,-7.01 6.22,-10.53 38.45,-65.64 80.85,-128.69 126.86,-188.83 337.38,-441.04 869,-725.59 1467.17,-725.59 598.17,0 1129.79,284.55 1467.17,725.59 46.01,60.14 88.41,123.19 126.86,188.83 2.06,3.52 4.19,6.99 6.22,10.53 h -234.99 -352.52"
         style="fill:#a5ea9b;fill-opacity:1;fill-rule:nonzero;stroke:none"
         id="path24" /><path
         d="m 5000,5694.16 c -1019.64,0 -1846.22,-826.58 -1846.22,-1846.22 0,-260.26 53.96,-507.88 151.12,-732.45 h 219.81 c -109.75,220.63 -171.58,469.3 -171.58,732.45 0,909.54 737.33,1646.86 1646.87,1646.86 909.54,0 1646.87,-737.32 1646.87,-1646.86 0,-263.15 -61.83,-511.82 -171.58,-732.45 h 219.81 c 97.16,224.57 151.12,472.19 151.12,732.45 0,1019.64 -826.58,1846.22 -1846.22,1846.22"
         style="fill:#ffcc81;fill-opacity:1;fill-rule:nonzero;stroke:none"
         id="path26" /></g></g></svg>
