<?xml version="1.0" encoding="UTF-8" standalone="no"?>
<!-- Generator: Adobe Illustrator 16.0.0, SVG Export Plug-In . SVG Version: 6.00 Build 0)  -->

<svg
   version="1.1"
   id="Capa_1"
   x="0px"
   y="0px"
   width="459.325px"
   height="459.325px"
   viewBox="0 0 459.325 459.325"
   style="enable-background:new 0 0 459.325 459.325;"
   xml:space="preserve"
   sodipodi:docname="plus.svg"
   inkscape:version="1.1.1 (3bf5ae0d25, 2021-09-20)"
   xmlns:inkscape="http://www.inkscape.org/namespaces/inkscape"
   xmlns:sodipodi="http://sodipodi.sourceforge.net/DTD/sodipodi-0.dtd"
   xmlns="http://www.w3.org/2000/svg"
   xmlns:svg="http://www.w3.org/2000/svg"><defs
   id="defs39" /><sodipodi:namedview
   id="namedview37"
   pagecolor="#ffffff"
   bordercolor="#666666"
   borderopacity="1.0"
   inkscape:pageshadow="2"
   inkscape:pageopacity="0.0"
   inkscape:pagecheckerboard="0"
   showgrid="false"
   inkscape:zoom="1.8113536"
   inkscape:cx="209.51183"
   inkscape:cy="229.93854"
   inkscape:window-width="1920"
   inkscape:window-height="1017"
   inkscape:window-x="-8"
   inkscape:window-y="-8"
   inkscape:window-maximized="1"
   inkscape:current-layer="g4" />
<g
   id="g4"
   transform="matrix(0.9,0,0,0.9,22.96625,22.96625)">
	<path
   d="m 436.35335,229.66745 c 0,19.9809 -16.1928,36.1737 -36.1845,36.1737 h -134.3376 v 134.3439 c 0,19.9863 -16.1982,36.1791 -36.1764,36.1737 -9.9909,0 -19.0341,-4.0428 -25.5744,-10.5867 -6.5484,-6.5529 -10.5966,-15.5916 -10.5921,-25.5771 l -0.005,-134.3592 H 59.12915 c -9.9846,0 -19.0206,-4.0428 -25.5744,-10.5966 -6.5376,-6.5376 -10.5831,-15.5808 -10.5831,-25.5717 -0.0054,-19.9773 16.1874,-36.1737 36.1764,-36.1737 h 134.3403 V 59.14805 c 0,-19.9836 16.2018,-36.1818 36.1818,-36.1818 19.9728,0.0054 36.1602,16.1874 36.171,36.1683 v 134.3592 h 134.3538 c 19.9764,0.0108 36.1485,16.1964 36.1584,36.1737 z"
   id="path2"
   style="fill:#29416c;fill-opacity:1;stroke-width:0.9" />
</g>
<g
   id="g6">
</g>
<g
   id="g8">
</g>
<g
   id="g10">
</g>
<g
   id="g12">
</g>
<g
   id="g14">
</g>
<g
   id="g16">
</g>
<g
   id="g18">
</g>
<g
   id="g20">
</g>
<g
   id="g22">
</g>
<g
   id="g24">
</g>
<g
   id="g26">
</g>
<g
   id="g28">
</g>
<g
   id="g30">
</g>
<g
   id="g32">
</g>
<g
   id="g34">
</g>
</svg>
