<?xml version="1.0" encoding="UTF-8" standalone="no"?>
<!-- Generator: Adobe Illustrator 16.0.0, SVG Export Plug-In . SVG Version: 6.00 Build 0)  -->

<svg
   version="1.1"
   id="Capa_1"
   x="0px"
   y="0px"
   width="459.325px"
   height="459.325px"
   viewBox="0 0 459.325 459.325"
   style="enable-background:new 0 0 459.325 459.325;"
   xml:space="preserve"
   sodipodi:docname="plus_white.svg"
   inkscape:version="1.1.1 (3bf5ae0d25, 2021-09-20)"
   xmlns:inkscape="http://www.inkscape.org/namespaces/inkscape"
   xmlns:sodipodi="http://sodipodi.sourceforge.net/DTD/sodipodi-0.dtd"
   xmlns="http://www.w3.org/2000/svg"
   xmlns:svg="http://www.w3.org/2000/svg"><defs
   id="defs39" /><sodipodi:namedview
   id="namedview37"
   pagecolor="#ffffff"
   bordercolor="#666666"
   borderopacity="1.0"
   inkscape:pageshadow="2"
   inkscape:pageopacity="0.0"
   inkscape:pagecheckerboard="0"
   showgrid="false"
   inkscape:zoom="1.8113536"
   inkscape:cx="227.73025"
   inkscape:cy="229.93854"
   inkscape:window-width="1920"
   inkscape:window-height="1017"
   inkscape:window-x="-8"
   inkscape:window-y="-8"
   inkscape:window-maximized="1"
   inkscape:current-layer="Capa_1" />
<g
   id="g4"
   style="fill:#ffffff"
   transform="matrix(0.81,0,0,0.81,43.635875,43.635875)">
	<path
   d="m 459.319,229.668 c 0,22.201 -17.992,40.193 -40.205,40.193 H 269.85 v 149.271 c 0,22.207 -17.998,40.199 -40.196,40.193 -11.101,0 -21.149,-4.492 -28.416,-11.763 -7.276,-7.281 -11.774,-17.324 -11.769,-28.419 L 189.463,269.855 H 40.181 c -11.094,0 -21.134,-4.492 -28.416,-11.774 C 4.501,250.817 0.006,240.769 0.006,229.668 0,207.471 17.992,189.475 40.202,189.475 H 189.469 V 40.202 C 189.469,17.998 207.471,0 229.671,0 c 22.192,0.006 40.178,17.986 40.19,40.187 v 149.288 h 149.282 c 22.196,0.012 40.165,17.996 40.176,40.193 z"
   id="path2"
   style="fill:#ffffff" />
</g>
<g
   id="g6">
</g>
<g
   id="g8">
</g>
<g
   id="g10">
</g>
<g
   id="g12">
</g>
<g
   id="g14">
</g>
<g
   id="g16">
</g>
<g
   id="g18">
</g>
<g
   id="g20">
</g>
<g
   id="g22">
</g>
<g
   id="g24">
</g>
<g
   id="g26">
</g>
<g
   id="g28">
</g>
<g
   id="g30">
</g>
<g
   id="g32">
</g>
<g
   id="g34">
</g>
</svg>
